<svg viewBox="0 0 41 41" fill="none" xmlns="http://www.w3.org/2000/svg" xmlns:xlink="http://www.w3.org/1999/xlink" x="0" y="0"><g id="Icon_4">
<circle id="Ellipse 1_3" cx="20.5" cy="20.5" r="20.5" fill="white"/>
<path id="Arrow 1_3" d="M11.25,24.7c-0.717,0.42 -0.963,1.33 -0.549,2.05c0.414,0.72 1.332,0.96 2.049,0.55zM30.769,16.39c0.215,-0.8 -0.26,-1.62 -1.06,-1.84l-13.04,-3.49c-0.8,-0.22 -1.623,0.26 -1.837,1.06c-0.215,0.8 0.26,1.62 1.06,1.83l11.591,3.11l-3.105,11.59c-0.215,0.8 0.26,1.62 1.06,1.84c0.8,0.21 1.623,-0.26 1.837,-1.06zM12.75,27.3l17.321,-10l-1.5,-2.6l-17.321,10z" fill="currentColor"/>
</g></svg>