<svg viewBox="0 0 17.3205 10" fill="none" xmlns="http://www.w3.org/2000/svg" xmlns:xlink="http://www.w3.org/1999/xlink" x="0" y="0"><path id="Arrow 1_7" d="M-0.75,8.7c-0.717,0.42 -0.963,1.33 -0.549,2.05c0.414,0.72 1.332,0.96 2.049,0.55zM18.769,0.39c0.215,-0.8 -0.26,-1.62 -1.06,-1.84l-13.04,-3.49c-0.8,-0.22 -1.623,0.26 -1.837,1.06c-0.215,0.8 0.26,1.62 1.06,1.83l11.591,3.11l-3.105,11.59c-0.215,0.8 0.26,1.62 1.06,1.84c0.8,0.21 1.623,-0.26 1.837,-1.06zM0.75,11.3l17.321,-10l-1.5,-2.6l-17.321,10z" fill="currentColor"/></svg>