<svg viewBox="0 0 691.5701 648.0001" fill="none" xmlns="http://www.w3.org/2000/svg" xmlns:xlink="http://www.w3.org/1999/xlink" x="0" y="0"><defs><mask id="mask6_330_762" style="mask-type:alpha" maskUnits="userSpaceOnUse" x="41" y="-0.5" width="651" height="649">
<g id="Vector_60">
<mask id="path-307-outside-4_330_762" maskUnits="userSpaceOnUse" x="40.710000000000036" y="-1" width="651" height="650" fill="black">
<rect fill="white" x="40.710000000000036" y="-1" width="651" height="650"/>
<path d="M366.64,161.56l20.43,-161.56l-0.16,162.84l40.54,-157.74l-20.43,161.57l60,-151.52l-40.53,157.89l78.52,-142.9l-60.17,151.52l95.92,-131.9l-78.68,142.9l111.55,-118.82l-95.75,131.74l125.6,-103.83l-111.72,118.66l137.73,-87.24l-125.76,103.83l147.62,-69.38l-137.72,87.24l155.12,-50.4l-147.62,69.38l160.23,-30.62l-155.13,50.4l162.79,-10.37l-160.23,30.46l162.78,10.21l-162.78,10.21l160.23,30.46l-162.79,-10.21l155.13,50.24l-160.23,-30.46l147.62,69.38l-155.12,-50.4l137.72,87.24l-147.62,-69.38l125.76,103.83l-137.73,-87.4l111.72,118.82l-125.6,-103.99l95.75,131.9l-111.55,-118.82l78.68,142.74l-95.92,-131.9l60.17,151.52l-78.52,-142.74l40.53,157.73l-60,-151.51l20.43,161.72l-40.54,-157.9l0.16,163l-20.43,-161.72l-20.43,161.72v-163l-40.53,157.9l20.58,-161.72l-60,151.51l40.53,-157.73l-78.52,142.74l60.17,-151.52l-95.91,131.9l78.67,-142.74l-111.71,118.82l95.91,-131.9l-125.59,103.99l111.71,-118.82l-137.73,87.4l125.76,-103.83l-147.62,69.38l137.73,-87.24l-155.13,50.4l147.63,-69.38l-160.24,30.46l155.13,-50.24l-162.79,10.21l160.23,-30.46l-162.78,-10.21l162.78,-10.21l-160.23,-30.46l162.79,10.37l-155.13,-50.4l160.24,30.62l-147.63,-69.38l155.13,50.4l-137.73,-87.24l147.62,69.38l-125.76,-103.83l137.73,87.24l-111.71,-118.66l125.59,103.83l-95.91,-131.74l111.71,118.82l-78.67,-142.9l95.91,131.9l-60.17,-151.52l78.52,142.9l-40.53,-157.89l60,151.52l-20.58,-161.57l40.53,157.74v-162.84z"/>
</mask>
<path d="M366.64,161.56l20.43,-161.56l-0.16,162.84l40.54,-157.74l-20.43,161.57l60,-151.52l-40.53,157.89l78.52,-142.9l-60.17,151.52l95.92,-131.9l-78.68,142.9l111.55,-118.82l-95.75,131.74l125.6,-103.83l-111.72,118.66l137.73,-87.24l-125.76,103.83l147.62,-69.38l-137.72,87.24l155.12,-50.4l-147.62,69.38l160.23,-30.62l-155.13,50.4l162.79,-10.37l-160.23,30.46l162.78,10.21l-162.78,10.21l160.23,30.46l-162.79,-10.21l155.13,50.24l-160.23,-30.46l147.62,69.38l-155.12,-50.4l137.72,87.24l-147.62,-69.38l125.76,103.83l-137.73,-87.4l111.72,118.82l-125.6,-103.99l95.75,131.9l-111.55,-118.82l78.68,142.74l-95.92,-131.9l60.17,151.52l-78.52,-142.74l40.53,157.73l-60,-151.51l20.43,161.72l-40.54,-157.9l0.16,163l-20.43,-161.72l-20.43,161.72v-163l-40.53,157.9l20.58,-161.72l-60,151.51l40.53,-157.73l-78.52,142.74l60.17,-151.52l-95.91,131.9l78.67,-142.74l-111.71,118.82l95.91,-131.9l-125.59,103.99l111.71,-118.82l-137.73,87.4l125.76,-103.83l-147.62,69.38l137.73,-87.24l-155.13,50.4l147.63,-69.38l-160.24,30.46l155.13,-50.24l-162.79,10.21l160.23,-30.46l-162.78,-10.21l162.78,-10.21l-160.23,-30.46l162.79,10.37l-155.13,-50.4l160.24,30.62l-147.63,-69.38l155.13,50.4l-137.73,-87.24l147.62,69.38l-125.76,-103.83l137.73,87.24l-111.71,-118.66l125.59,103.83l-95.91,-131.74l111.71,118.82l-78.67,-142.9l95.91,131.9l-60.17,-151.52l78.52,142.9l-40.53,-157.89l60,151.52l-20.58,-161.57l40.53,157.74v-162.84z" stroke="black" stroke-width="2" stroke-miterlimit="10" mask="url(#path-307-outside-4_330_762)"/>
</g>
</mask><mask id="path-307-outside-4_330_762" maskUnits="userSpaceOnUse" x="1013.71" y="6990.5" width="651" height="650" fill="black">
<rect fill="white" x="1013.71" y="6990.5" width="651" height="650"/>
<path d="M1339.64 7153.06L1360.07 6991.5L1359.91 7154.34L1400.45 6996.6L1380.02 7158.17L1440.02 7006.65L1399.49 7164.54L1478.01 7021.64L1417.84 7173.16L1513.76 7041.26L1435.08 7184.16L1546.63 7065.34L1450.88 7197.08L1576.48 7093.25L1464.76 7211.91L1602.49 7124.67L1476.73 7228.5L1624.35 7159.12L1486.63 7246.36L1641.75 7195.96L1494.13 7265.34L1654.36 7234.72L1499.23 7285.12L1662.02 7274.75L1501.79 7305.21L1664.57 7315.42L1501.79 7325.63L1662.02 7356.09L1499.23 7345.88L1654.36 7396.12L1494.13 7365.66L1641.75 7435.04L1486.63 7384.64L1624.35 7471.88L1476.73 7402.5L1602.49 7506.33L1464.76 7418.93L1576.48 7537.75L1450.88 7433.76L1546.63 7565.66L1435.08 7446.84L1513.76 7589.58L1417.84 7457.68L1478.01 7609.2L1399.49 7466.46L1440.02 7624.19L1380.02 7472.68L1400.45 7634.4L1359.91 7476.5L1360.07 7639.5L1339.64 7477.78L1319.21 7639.5V7476.5L1278.68 7634.4L1299.26 7472.68L1239.26 7624.19L1279.79 7466.46L1201.27 7609.2L1261.44 7457.68L1165.53 7589.58L1244.2 7446.84L1132.49 7565.66L1228.4 7433.76L1102.81 7537.75L1214.52 7418.93L1076.79 7506.33L1202.55 7402.5L1054.93 7471.88L1192.66 7384.64L1037.53 7435.04L1185.16 7365.66L1024.92 7396.12L1180.05 7345.88L1017.26 7356.09L1177.49 7325.63L1014.71 7315.42L1177.49 7305.21L1017.26 7274.75L1180.05 7285.12L1024.92 7234.72L1185.16 7265.34L1037.53 7195.96L1192.66 7246.36L1054.93 7159.12L1202.55 7228.5L1076.79 7124.67L1214.52 7211.91L1102.81 7093.25L1228.4 7197.08L1132.49 7065.34L1244.2 7184.16L1165.53 7041.26L1261.44 7173.16L1201.27 7021.64L1279.79 7164.54L1239.26 7006.65L1299.26 7158.17L1278.68 6996.6L1319.21 7154.34V6991.5L1339.64 7153.06Z"/>
</mask></defs><g id="Illustration_8">
<g id="Mask group_7">
<mask id="mask6_330_762" style="mask-type:alpha" maskUnits="userSpaceOnUse" x="1014" y="6991" width="651" height="649">
<g id="Vector_60">
<mask id="path-307-outside-4_330_762" maskUnits="userSpaceOnUse" x="1013.71" y="6990.5" width="651" height="650" fill="black">
<rect fill="white" x="1013.71" y="6990.5" width="651" height="650"/>
<path d="M1339.64 7153.06L1360.07 6991.5L1359.91 7154.34L1400.45 6996.6L1380.02 7158.17L1440.02 7006.65L1399.49 7164.54L1478.01 7021.64L1417.84 7173.16L1513.76 7041.26L1435.08 7184.16L1546.63 7065.34L1450.88 7197.08L1576.48 7093.25L1464.76 7211.91L1602.49 7124.67L1476.73 7228.5L1624.35 7159.12L1486.63 7246.36L1641.75 7195.96L1494.13 7265.34L1654.36 7234.72L1499.23 7285.12L1662.02 7274.75L1501.79 7305.21L1664.57 7315.42L1501.79 7325.63L1662.02 7356.09L1499.23 7345.88L1654.36 7396.12L1494.13 7365.66L1641.75 7435.04L1486.63 7384.64L1624.35 7471.88L1476.73 7402.5L1602.49 7506.33L1464.76 7418.93L1576.48 7537.75L1450.88 7433.76L1546.63 7565.66L1435.08 7446.84L1513.76 7589.58L1417.84 7457.68L1478.01 7609.2L1399.49 7466.46L1440.02 7624.19L1380.02 7472.68L1400.45 7634.4L1359.91 7476.5L1360.07 7639.5L1339.64 7477.78L1319.21 7639.5V7476.5L1278.68 7634.4L1299.26 7472.68L1239.26 7624.19L1279.79 7466.46L1201.27 7609.2L1261.44 7457.68L1165.53 7589.58L1244.2 7446.84L1132.49 7565.66L1228.4 7433.76L1102.81 7537.75L1214.52 7418.93L1076.79 7506.33L1202.55 7402.5L1054.93 7471.88L1192.66 7384.64L1037.53 7435.04L1185.16 7365.66L1024.92 7396.12L1180.05 7345.88L1017.26 7356.09L1177.49 7325.63L1014.71 7315.42L1177.49 7305.21L1017.26 7274.75L1180.05 7285.12L1024.92 7234.72L1185.16 7265.34L1037.53 7195.96L1192.66 7246.36L1054.93 7159.12L1202.55 7228.5L1076.79 7124.67L1214.52 7211.91L1102.81 7093.25L1228.4 7197.08L1132.49 7065.34L1244.2 7184.16L1165.53 7041.26L1261.44 7173.16L1201.27 7021.64L1279.79 7164.54L1239.26 7006.65L1299.26 7158.17L1278.68 6996.6L1319.21 7154.34V6991.5L1339.64 7153.06Z"/>
</mask>
<path d="M1339.64 7153.06L1360.07 6991.5L1359.91 7154.34L1400.45 6996.6L1380.02 7158.17L1440.02 7006.65L1399.49 7164.54L1478.01 7021.64L1417.84 7173.16L1513.76 7041.26L1435.08 7184.16L1546.63 7065.34L1450.88 7197.08L1576.48 7093.25L1464.76 7211.91L1602.49 7124.67L1476.73 7228.5L1624.35 7159.12L1486.63 7246.36L1641.75 7195.96L1494.13 7265.34L1654.36 7234.72L1499.23 7285.12L1662.02 7274.75L1501.79 7305.21L1664.57 7315.42L1501.79 7325.63L1662.02 7356.09L1499.23 7345.88L1654.36 7396.12L1494.13 7365.66L1641.75 7435.04L1486.63 7384.64L1624.35 7471.88L1476.73 7402.5L1602.49 7506.33L1464.76 7418.93L1576.48 7537.75L1450.88 7433.76L1546.63 7565.66L1435.08 7446.84L1513.76 7589.58L1417.84 7457.68L1478.01 7609.2L1399.49 7466.46L1440.02 7624.19L1380.02 7472.68L1400.45 7634.4L1359.91 7476.5L1360.07 7639.5L1339.64 7477.78L1319.21 7639.5V7476.5L1278.68 7634.4L1299.26 7472.68L1239.26 7624.19L1279.79 7466.46L1201.27 7609.2L1261.44 7457.68L1165.53 7589.58L1244.2 7446.84L1132.49 7565.66L1228.4 7433.76L1102.81 7537.75L1214.52 7418.93L1076.79 7506.33L1202.55 7402.5L1054.93 7471.88L1192.66 7384.64L1037.53 7435.04L1185.16 7365.66L1024.92 7396.12L1180.05 7345.88L1017.26 7356.09L1177.49 7325.63L1014.71 7315.42L1177.49 7305.21L1017.26 7274.75L1180.05 7285.12L1024.92 7234.72L1185.16 7265.34L1037.53 7195.96L1192.66 7246.36L1054.93 7159.12L1202.55 7228.5L1076.79 7124.67L1214.52 7211.91L1102.81 7093.25L1228.4 7197.08L1132.49 7065.34L1244.2 7184.16L1165.53 7041.26L1261.44 7173.16L1201.27 7021.64L1279.79 7164.54L1239.26 7006.65L1299.26 7158.17L1278.68 6996.6L1319.21 7154.34V6991.5L1339.64 7153.06Z" stroke="black" stroke-width="2" stroke-miterlimit="10" mask="url(#path-307-outside-4_330_762)"/>
</g>
</mask>
<g mask="url(#mask6_330_762)">
<rect id="Rectangle 77" x="-785.721" y="-38.11999999999989" width="1152.83" height="702.852" rx="45" fill="black"/>
</g>
</g>
<path id="Vector_61" d="M95.71,470.1l45.71,24.9l-45.71,25.1l-25,45.61l-25,-45.61l-45.71,-25.1l45.71,-24.9l25,-45.81z" fill="#B9FF66"/>
<path id="Vector_62" d="M217.1,243.56l81.68,44.51l-81.68,44.86l-44.68,81.49l-44.68,-81.49l-81.67,-44.86l81.67,-44.51l44.68,-81.85z" fill="#191A23"/>
</g></svg>