<svg viewBox="0 0 359 394.2686" fill="none" xmlns="http://www.w3.org/2000/svg" xmlns:xlink="http://www.w3.org/1999/xlink" x="0" y="0"><g id="Illustration_7">
<path id="Ellipse 4" d="M169,163.5c46.64,0 88.86,3.97 119.4,10.39c15.27,3.21 27.6,7.02 36.1,11.24c4.25,2.11 7.51,4.31 9.71,6.56c2.19,2.26 3.29,4.53 3.29,6.81c0,2.28 -1.1,4.55 -3.29,6.81c-2.2,2.25 -5.46,4.45 -9.71,6.56c-8.5,4.22 -20.83,8.03 -36.1,11.24c-30.54,6.42 -72.76,10.39 -119.4,10.39c-46.644,0 -88.858,-3.97 -119.398,-10.39c-15.275,-3.21 -27.602,-7.02 -36.099,-11.24c-4.249,-2.11 -7.514,-4.31 -9.711,-6.56c-2.195,-2.26 -3.292,-4.53 -3.292,-6.81c0,-2.28 1.097,-4.55 3.292,-6.81c2.197,-2.25 5.462,-4.45 9.711,-6.56c8.497,-4.22 20.824,-8.03 36.099,-11.24c30.54,-6.42 72.754,-10.39 119.398,-10.39z" stroke="black"/>
<path id="Ellipse 5" d="M169,188.5c46.64,0 88.86,3.97 119.4,10.39c15.27,3.21 27.6,7.02 36.1,11.24c4.25,2.11 7.51,4.31 9.71,6.56c2.19,2.26 3.29,4.53 3.29,6.81c0,2.28 -1.1,4.55 -3.29,6.81c-2.2,2.25 -5.46,4.45 -9.71,6.56c-8.5,4.22 -20.83,8.03 -36.1,11.24c-30.54,6.42 -72.76,10.39 -119.4,10.39c-46.644,0 -88.858,-3.97 -119.398,-10.39c-15.275,-3.21 -27.602,-7.02 -36.099,-11.24c-4.249,-2.11 -7.514,-4.31 -9.711,-6.56c-2.195,-2.26 -3.292,-4.53 -3.292,-6.81c0,-2.28 1.097,-4.55 3.292,-6.81c2.197,-2.25 5.462,-4.45 9.711,-6.56c8.497,-4.22 20.824,-8.03 36.099,-11.24c30.54,-6.42 72.754,-10.39 119.398,-10.39z" stroke="black"/>
<path id="Ellipse 6" d="M169,213.5c46.64,0 88.86,3.97 119.4,10.39c15.27,3.21 27.6,7.02 36.1,11.24c4.25,2.11 7.51,4.31 9.71,6.56c2.19,2.26 3.29,4.53 3.29,6.81c0,2.28 -1.1,4.55 -3.29,6.81c-2.2,2.25 -5.46,4.45 -9.71,6.56c-8.5,4.22 -20.83,8.03 -36.1,11.24c-30.54,6.42 -72.76,10.39 -119.4,10.39c-46.644,0 -88.858,-3.97 -119.398,-10.39c-15.275,-3.21 -27.602,-7.02 -36.099,-11.24c-4.249,-2.11 -7.514,-4.31 -9.711,-6.56c-2.195,-2.26 -3.292,-4.53 -3.292,-6.81c0,-2.28 1.097,-4.55 3.292,-6.81c2.197,-2.25 5.462,-4.45 9.711,-6.56c8.497,-4.22 20.824,-8.03 36.099,-11.24c30.54,-6.42 72.754,-10.39 119.398,-10.39z" stroke="black"/>
<path id="Star 2" d="M252.34,66.63l0.17,0.9l0.67,-0.63l47.13,-44.72l-27.97,58.64l-0.4,0.83l0.92,-0.12l64.42,-8.48l-57.1,31.01l-0.81,0.44l0.81,0.44l57.1,31l-64.42,-8.47l-0.92,-0.12l0.4,0.83l27.97,58.64l-47.13,-44.72l-0.67,-0.63l-0.17,0.9l-11.84,63.89l-11.84,-63.89l-0.17,-0.9l-0.67,0.63l-47.13,44.72l27.97,-58.64l0.4,-0.83l-0.92,0.12l-64.418,8.47l57.098,-31l0.81,-0.44l-0.81,-0.44l-57.098,-31.01l64.418,8.48l0.92,0.12l-0.4,-0.83l-27.97,-58.64l47.13,44.72l0.67,0.63l0.17,-0.9l11.84,-63.89z" stroke="black"/>
<path id="Star 4" d="M277,177l17.79,45.06l46.32,-14.19l-24.14,42.01l39.97,27.37l-47.88,7.31l3.52,48.32l-35.58,-32.88l-35.58,32.88l3.52,-48.32l-47.88,-7.31l39.97,-27.37l-24.14,-42.01l46.32,14.19z" fill="#D9D9D9"/>
<path id="Vector_42" d="M112.194,306.1l22.94,-42.1l23.126,42.1l42.01,23.03l-42.01,23.04l-23.126,42.1l-22.94,-42.1l-42.194,-23.04z" fill="#B9FF66"/>
<circle id="Ellipse 17" cx="152.5" cy="186.5" r="62" fill="black" stroke="black"/>
<ellipse id="Ellipse 18" cx="132" cy="173" rx="10" ry="20" fill="white"/>
<ellipse id="Ellipse 19" cx="173" cy="173" rx="10" ry="20" fill="white"/>
</g></svg>