<svg viewBox="0 0 34 34" fill="none" xmlns="http://www.w3.org/2000/svg" xmlns:xlink="http://www.w3.org/1999/xlink" x="0" y="0"><g id="Social icon">
<circle id="Ellipse 3" cx="17" cy="17" r="17" fill="black"/>
<g id="linkedin">
<path d="M9.318,25h3.495v-11.32h-3.495z" fill="#B9FF66"/>
<path d="M9,10.07c0,1.12 0.9,2.02 2.065,2.02c1.113,0 2.013,-0.9 2.013,-2.02c0,-1.11 -0.9,-2.07 -2.013,-2.07c-1.165,0 -2.065,0.96 -2.065,2.07z" fill="#B9FF66"/>
<path d="M22.452,25h3.548v-6.22c0,-3.02 -0.688,-5.41 -4.237,-5.41c-1.694,0 -2.86,0.95 -3.336,1.85h-0.053v-1.54h-3.337v11.32h3.496v-5.58c0,-1.49 0.265,-2.92 2.118,-2.92c1.801,0 1.801,1.7 1.801,2.98z" fill="#B9FF66"/>
</g>
</g></svg>