<svg viewBox="0 0 219.5368 36" fill="none" xmlns="http://www.w3.org/2000/svg" xmlns:xlink="http://www.w3.org/1999/xlink" x="0" y="0"><defs><clipPath id="clip1_330_762">
<rect width="36" height="36" fill="white" transform="translate(0, 0)"/>
</clipPath></defs><g id="Logo">
<g id="Icon" clip-path="url(#clip1_330_762)">
<path id="Vector" d="M17.999,5.5347l17.601,-5.1856l-5.136,17.651l5.136,17.6009l-17.601,-5.136l-17.651,5.136l5.185,-17.6009l-5.185,-17.651z" fill="black"/>
</g>
<g id="Positivus">
<path d="M48.92,31v-28h11.12c1.707,0 3.227,0.3467 4.56,1.04c1.36,0.6667 2.413,1.6267 3.16,2.88c0.773,1.2267 1.16,2.7067 1.16,4.44v0.52c0,1.7333 -0.4,3.2267 -1.2,4.48c-0.773,1.2533 -1.827,2.2133 -3.16,2.88c-1.333,0.6667 -2.84,1 -4.52,1h-6.8v10.76zM53.24,16.32h6.36c1.52,0 2.733,-0.4 3.64,-1.2c0.907,-0.8 1.36,-1.8933 1.36,-3.28v-0.4c0,-1.4133 -0.453,-2.52 -1.36,-3.32c-0.907,-0.8 -2.12,-1.2 -3.64,-1.2h-6.36z" fill="black"/>
<path d="M81.835,31.56c-1.974,0 -3.734,-0.4 -5.28,-1.2c-1.52,-0.827 -2.72,-2 -3.6,-3.52c-0.88,-1.52 -1.32,-3.32 -1.32,-5.4v-0.6c0,-2.08 0.44,-3.8667 1.32,-5.36c0.88,-1.52 2.08,-2.6933 3.6,-3.52c1.546,-0.8267 3.306,-1.24 5.28,-1.24c1.973,0 3.733,0.4133 5.28,1.24c1.546,0.8267 2.76,2 3.64,3.52c0.88,1.4933 1.32,3.28 1.32,5.36v0.6c0,2.08 -0.44,3.88 -1.32,5.4c-0.88,1.52 -2.094,2.693 -3.64,3.52c-1.547,0.8 -3.307,1.2 -5.28,1.2zM81.835,27.88c1.813,0 3.28,-0.573 4.4,-1.72c1.146,-1.173 1.72,-2.7867 1.72,-4.84v-0.36c0,-2.0533 -0.56,-3.6533 -1.68,-4.8c-1.12,-1.1733 -2.6,-1.76 -4.44,-1.76c-1.787,0 -3.254,0.5867 -4.4,1.76c-1.12,1.1467 -1.68,2.7467 -1.68,4.8v0.36c0,2.0533 0.56,3.667 1.68,4.84c1.146,1.147 2.613,1.72 4.4,1.72z" fill="black"/>
<path d="M105.284,31.56c-2.507,0 -4.587,-0.56 -6.24,-1.68c-1.653,-1.12 -2.667,-2.813 -3.04,-5.08l3.84,-0.92c0.213,1.093 0.573,1.96 1.08,2.6c0.507,0.64 1.133,1.093 1.88,1.36c0.773,0.267 1.6,0.4 2.48,0.4c1.307,0 2.307,-0.253 3,-0.76c0.72,-0.507 1.08,-1.16 1.08,-1.96c0,-0.8 -0.333,-1.387 -1,-1.76c-0.667,-0.3733 -1.653,-0.68 -2.96,-0.92l-1.36,-0.24c-1.333,-0.24 -2.547,-0.5867 -3.64,-1.04c-1.093,-0.4533 -1.96,-1.08 -2.6,-1.88c-0.64,-0.8 -0.96,-1.8267 -0.96,-3.08c0,-1.8667 0.693,-3.3067 2.08,-4.32c1.387,-1.04 3.227,-1.56 5.52,-1.56c2.213,0 4.027,0.5067 5.44,1.52c1.44,0.9867 2.373,2.3333 2.8,4.04l-3.84,1.08c-0.24,-1.2 -0.747,-2.04 -1.52,-2.52c-0.773,-0.5067 -1.733,-0.76 -2.88,-0.76c-1.12,0 -2,0.2133 -2.64,0.64c-0.64,0.4 -0.96,0.9733 -0.96,1.72c0,0.8 0.307,1.3867 0.92,1.76c0.64,0.3733 1.493,0.6533 2.56,0.84l1.4,0.24c1.413,0.24 2.707,0.5733 3.88,1c1.173,0.4267 2.093,1.04 2.76,1.84c0.693,0.8 1.04,1.8667 1.04,3.2c0,1.973 -0.733,3.507 -2.2,4.6c-1.467,1.093 -3.44,1.64 -5.92,1.64z" fill="black"/>
<path d="M118.22,31v-19.72h4.12v19.72zM120.3,8.6c-0.8,0 -1.48,-0.2533 -2.04,-0.76c-0.534,-0.5333 -0.8,-1.2133 -0.8,-2.04c0,-0.8267 0.266,-1.4933 0.8,-2c0.56,-0.5333 1.24,-0.8 2.04,-0.8c0.826,0 1.506,0.2667 2.04,0.8c0.533,0.5067 0.8,1.1733 0.8,2c0,0.8267 -0.267,1.5067 -0.8,2.04c-0.534,0.5067 -1.214,0.76 -2.04,0.76z" fill="black"/>
<path d="M135.854,31c-1.2,0 -2.16,-0.36 -2.88,-1.08c-0.693,-0.72 -1.04,-1.68 -1.04,-2.88v-12.28h-5.44v-3.48h5.44v-6.52h4.12v6.52h5.88v3.48h-5.88v11.56c0,0.8 0.373,1.2 1.12,1.2h4.12v3.48z" fill="black"/>
<path d="M146.774,31v-19.72h4.12v19.72zM148.854,8.6c-0.8,0 -1.48,-0.2533 -2.04,-0.76c-0.533,-0.5333 -0.8,-1.2133 -0.8,-2.04c0,-0.8267 0.267,-1.4933 0.8,-2c0.56,-0.5333 1.24,-0.8 2.04,-0.8c0.827,0 1.507,0.2667 2.04,0.8c0.534,0.5067 0.8,1.1733 0.8,2c0,0.8267 -0.266,1.5067 -0.8,2.04c-0.533,0.5067 -1.213,0.76 -2.04,0.76z" fill="black"/>
<path d="M161.569,31l-6.64,-19.72h4.36l5.24,16.68h0.64l5.24,-16.68h4.36l-6.64,19.72z" fill="black"/>
<path d="M186.326,31.36c-1.493,0 -2.826,-0.333 -4,-1c-1.173,-0.667 -2.093,-1.613 -2.76,-2.84c-0.666,-1.227 -1,-2.693 -1,-4.4v-11.84h4.12v11.56c0,1.707 0.427,2.973 1.28,3.8c0.854,0.8 2.04,1.2 3.56,1.2c1.68,0 3.027,-0.56 4.04,-1.68c1.04,-1.147 1.56,-2.7867 1.56,-4.92v-9.96h4.12v19.72h-4.04v-2.96h-0.64c-0.373,0.8 -1.04,1.56 -2,2.28c-0.96,0.693 -2.373,1.04 -4.24,1.04z" fill="black"/>
<path d="M211.417,31.56c-2.507,0 -4.587,-0.56 -6.24,-1.68c-1.654,-1.12 -2.667,-2.813 -3.04,-5.08l3.84,-0.92c0.213,1.093 0.573,1.96 1.08,2.6c0.506,0.64 1.133,1.093 1.88,1.36c0.773,0.267 1.6,0.4 2.48,0.4c1.306,0 2.306,-0.253 3,-0.76c0.72,-0.507 1.08,-1.16 1.08,-1.96c0,-0.8 -0.334,-1.387 -1,-1.76c-0.667,-0.3733 -1.654,-0.68 -2.96,-0.92l-1.36,-0.24c-1.334,-0.24 -2.547,-0.5867 -3.64,-1.04c-1.094,-0.4533 -1.96,-1.08 -2.6,-1.88c-0.64,-0.8 -0.96,-1.8267 -0.96,-3.08c0,-1.8667 0.693,-3.3067 2.08,-4.32c1.386,-1.04 3.226,-1.56 5.52,-1.56c2.213,0 4.026,0.5067 5.44,1.52c1.44,0.9867 2.373,2.3333 2.8,4.04l-3.84,1.08c-0.24,-1.2 -0.747,-2.04 -1.52,-2.52c-0.774,-0.5067 -1.734,-0.76 -2.88,-0.76c-1.12,0 -2,0.2133 -2.64,0.64c-0.64,0.4 -0.96,0.9733 -0.96,1.72c0,0.8 0.306,1.3867 0.92,1.76c0.64,0.3733 1.493,0.6533 2.56,0.84l1.4,0.24c1.413,0.24 2.706,0.5733 3.88,1c1.173,0.4267 2.093,1.04 2.76,1.84c0.693,0.8 1.04,1.8667 1.04,3.2c0,1.973 -0.734,3.507 -2.2,4.6c-1.467,1.093 -3.44,1.64 -5.92,1.64z" fill="black"/>
</g>
</g></svg>