<svg viewBox="0 0 180 29" fill="none" xmlns="http://www.w3.org/2000/svg" xmlns:xlink="http://www.w3.org/1999/xlink" x="0" y="0"><defs><clipPath id="clip16_330_762">
<rect width="29.5167" height="29" fill="white" transform="translate(0, 0)"/>
</clipPath></defs><g id="Logo_2">
<g id="Icon_11" clip-path="url(#clip16_330_762)">
<path id="Vector_63" d="M14.757,4.46l14.432,-4.18l-4.211,14.22l4.211,14.18l-14.432,-4.14l-14.472,4.14l4.252,-14.18l-4.252,-14.22z" fill="currentColor"/>
</g>
<g id="Positivus_2">
<path d="M40.109,24.97v-22.55h9.118c1.399,0 2.645,0.28 3.739,0.83c1.115,0.54 1.978,1.32 2.59,2.32c0.635,0.99 0.952,2.19 0.952,3.58v0.42c0,1.4 -0.328,2.6 -0.984,3.61c-0.634,1.01 -1.498,1.78 -2.591,2.32c-1.093,0.54 -2.329,0.8 -3.706,0.8h-5.576v8.67zM43.651,13.15h5.215c1.246,0 2.241,-0.33 2.984,-0.97c0.744,-0.64 1.116,-1.52 1.116,-2.64v-0.32c0,-1.14 -0.372,-2.03 -1.116,-2.68c-0.743,-0.64 -1.738,-0.97 -2.984,-0.97h-5.215z" fill="currentColor"/>
<path d="M67.096,25.42c-1.618,0 -3.061,-0.32 -4.329,-0.96c-1.246,-0.67 -2.23,-1.61 -2.951,-2.84c-0.722,-1.22 -1.083,-2.67 -1.083,-4.35v-0.48c0,-1.68 0.361,-3.12 1.083,-4.32c0.721,-1.22 1.705,-2.17 2.951,-2.84c1.268,-0.66 2.711,-0.99 4.329,-0.99c1.618,0 3.061,0.33 4.33,0.99c1.268,0.67 2.262,1.62 2.984,2.84c0.721,1.2 1.082,2.64 1.082,4.32v0.48c0,1.68 -0.361,3.13 -1.082,4.35c-0.722,1.23 -1.716,2.17 -2.984,2.84c-1.269,0.64 -2.712,0.96 -4.33,0.96zM67.096,22.46c1.487,0 2.69,-0.46 3.608,-1.39c0.94,-0.94 1.41,-2.24 1.41,-3.9v-0.29c0,-1.65 -0.459,-2.94 -1.377,-3.86c-0.919,-0.95 -2.132,-1.42 -3.641,-1.42c-1.465,0 -2.667,0.47 -3.607,1.42c-0.918,0.92 -1.378,2.21 -1.378,3.86v0.29c0,1.66 0.46,2.96 1.378,3.9c0.94,0.93 2.142,1.39 3.607,1.39z" fill="currentColor"/>
<path d="M86.323,25.42c-2.056,0 -3.761,-0.45 -5.116,-1.35c-1.356,-0.9 -2.187,-2.27 -2.493,-4.09l3.148,-0.74c0.175,0.88 0.471,1.58 0.886,2.09c0.415,0.52 0.929,0.88 1.541,1.1c0.634,0.21 1.312,0.32 2.034,0.32c1.071,0 1.891,-0.2 2.459,-0.61c0.591,-0.41 0.886,-0.94 0.886,-1.58c0,-0.65 -0.273,-1.12 -0.82,-1.42c-0.547,-0.3 -1.356,-0.55 -2.427,-0.74l-1.115,-0.19c-1.093,-0.2 -2.088,-0.48 -2.984,-0.84c-0.897,-0.37 -1.607,-0.87 -2.132,-1.52c-0.525,-0.64 -0.787,-1.47 -0.787,-2.48c0,-1.5 0.568,-2.66 1.705,-3.48c1.137,-0.84 2.646,-1.25 4.526,-1.25c1.815,0 3.302,0.4 4.46,1.22c1.181,0.8 1.946,1.88 2.296,3.25l-3.148,0.87c-0.197,-0.96 -0.613,-1.64 -1.247,-2.03c-0.634,-0.4 -1.421,-0.61 -2.361,-0.61c-0.918,0 -1.64,0.17 -2.165,0.52c-0.524,0.32 -0.787,0.78 -0.787,1.38c0,0.65 0.252,1.12 0.755,1.42c0.524,0.3 1.224,0.53 2.099,0.68l1.147,0.19c1.159,0.19 2.22,0.46 3.182,0.81c0.962,0.34 1.716,0.83 2.263,1.48c0.568,0.64 0.852,1.5 0.852,2.58c0,1.59 -0.601,2.82 -1.803,3.7c-1.203,0.88 -2.821,1.32 -4.854,1.32z" fill="currentColor"/>
<path d="M96.929,24.97v-15.88h3.378v15.88zM98.634,6.93c-0.656,0 -1.213,-0.21 -1.672,-0.61c-0.438,-0.43 -0.656,-0.98 -0.656,-1.65c0,-0.66 0.218,-1.2 0.656,-1.61c0.459,-0.43 1.016,-0.64 1.672,-0.64c0.678,0 1.235,0.21 1.673,0.64c0.437,0.41 0.656,0.95 0.656,1.61c0,0.67 -0.219,1.22 -0.656,1.65c-0.438,0.4 -0.995,0.61 -1.673,0.61z" fill="currentColor"/>
<path d="M111.387,24.97c-0.984,0 -1.771,-0.29 -2.361,-0.87c-0.568,-0.58 -0.853,-1.35 -0.853,-2.32v-9.89h-4.46v-2.8h4.46v-5.26h3.378v5.26h4.821v2.8h-4.821v9.31c0,0.65 0.306,0.97 0.919,0.97h3.378v2.8z" fill="currentColor"/>
<path d="M120.341,24.97v-15.88h3.378v15.88zM122.046,6.93c-0.656,0 -1.213,-0.21 -1.672,-0.61c-0.438,-0.43 -0.656,-0.98 -0.656,-1.65c0,-0.66 0.218,-1.2 0.656,-1.61c0.459,-0.43 1.016,-0.64 1.672,-0.64c0.678,0 1.236,0.21 1.673,0.64c0.437,0.41 0.656,0.95 0.656,1.61c0,0.67 -0.219,1.22 -0.656,1.65c-0.437,0.4 -0.995,0.61 -1.673,0.61z" fill="currentColor"/>
<path d="M132.471,24.97l-5.444,-15.88h3.575l4.296,13.43h0.525l4.296,-13.43h3.575l-5.444,15.88z" fill="currentColor"/>
<path d="M152.77,25.26c-1.224,0 -2.317,-0.27 -3.279,-0.8c-0.963,-0.54 -1.717,-1.3 -2.263,-2.29c-0.547,-0.99 -0.82,-2.17 -0.82,-3.55v-9.53h3.378v9.31c0,1.37 0.35,2.39 1.049,3.06c0.7,0.64 1.673,0.97 2.919,0.97c1.377,0 2.482,-0.45 3.312,-1.36c0.853,-0.92 1.28,-2.24 1.28,-3.96v-8.02h3.378v15.88h-3.313v-2.38h-0.525c-0.306,0.64 -0.852,1.25 -1.639,1.83c-0.788,0.56 -1.946,0.84 -3.477,0.84z" fill="currentColor"/>
<path d="M173.342,25.42c-2.055,0 -3.761,-0.45 -5.116,-1.35c-1.356,-0.9 -2.187,-2.27 -2.493,-4.09l3.149,-0.74c0.174,0.88 0.47,1.58 0.885,2.09c0.416,0.52 0.929,0.88 1.542,1.1c0.634,0.21 1.311,0.32 2.033,0.32c1.071,0 1.891,-0.2 2.46,-0.61c0.59,-0.41 0.885,-0.94 0.885,-1.58c0,-0.65 -0.273,-1.12 -0.82,-1.42c-0.546,-0.3 -1.355,-0.55 -2.427,-0.74l-1.115,-0.19c-1.093,-0.2 -2.088,-0.48 -2.984,-0.84c-0.897,-0.37 -1.607,-0.87 -2.132,-1.52c-0.525,-0.64 -0.787,-1.47 -0.787,-2.48c0,-1.5 0.568,-2.66 1.705,-3.48c1.137,-0.84 2.646,-1.25 4.526,-1.25c1.815,0 3.302,0.4 4.46,1.22c1.181,0.8 1.946,1.88 2.296,3.25l-3.148,0.87c-0.197,-0.96 -0.612,-1.64 -1.247,-2.03c-0.634,-0.4 -1.421,-0.61 -2.361,-0.61c-0.918,0 -1.64,0.17 -2.164,0.52c-0.525,0.32 -0.787,0.78 -0.787,1.38c0,0.65 0.251,1.12 0.754,1.42c0.525,0.3 1.224,0.53 2.099,0.68l1.148,0.19c1.158,0.19 2.219,0.46 3.181,0.81c0.962,0.34 1.716,0.83 2.263,1.48c0.568,0.64 0.853,1.5 0.853,2.58c0,1.59 -0.602,2.82 -1.804,3.7c-1.203,0.88 -2.821,1.32 -4.854,1.32z" fill="currentColor"/>
</g>
</g></svg>