<svg viewBox="0 0 1440 48" fill="none" xmlns="http://www.w3.org/2000/svg" xmlns:xlink="http://www.w3.org/1999/xlink" x="0" y="0"><defs><clipPath id="clip4_330_762">
<rect width="126.369" height="48" fill="white" transform="translate(320.018, 0)"/>
</clipPath><clipPath id="clip5_330_762">
<rect width="128.626" height="48" fill="white" transform="translate(542.293, 0)"/>
</clipPath><clipPath id="clip6_330_762">
<rect width="145.551" height="48" fill="white" transform="translate(766.824, 0)"/>
</clipPath><clipPath id="clip7_330_762">
<rect width="125.241" height="48" fill="white" transform="translate(1008.28, 0)"/>
</clipPath><clipPath id="clip8_330_762">
<rect width="110.573" height="48" fill="white" transform="translate(1229.43, 0)"/>
</clipPath></defs><g id="Logotypes">
<g id="Company logo" style="mix-blend-mode:luminosity">
<g id="Vector_34">
<path fill-rule="evenodd" clip-rule="evenodd" d="M176.651,37.807c-7.18,4.69 -17.587,7.193 -26.547,7.193c-12.564,0 -23.875,-4.119 -32.431,-10.968c-0.673,-0.539 -0.07,-1.273 0.736,-0.854c9.235,4.762 20.653,7.627 32.448,7.627c7.954,0 16.705,-1.458 24.75,-4.485c1.216,-0.458 2.232,0.705 1.044,1.487z" fill="#FF9900"/>
<path fill-rule="evenodd" clip-rule="evenodd" d="M179.636,34.78c-0.914,-1.039 -6.067,-0.491 -8.379,-0.248c-0.705,0.076 -0.813,-0.467 -0.178,-0.858c4.104,-2.56 10.837,-1.821 11.622,-0.963c0.786,0.863 -0.204,6.845 -4.06,9.701c-0.592,0.438 -1.156,0.205 -0.893,-0.377c0.866,-1.916 2.808,-6.211 1.888,-7.255z" fill="#FF9900"/>
</g>
<g id="Vector_35">
<path fill-rule="evenodd" clip-rule="evenodd" d="M171.418,15.604v-2.489c0,-0.376 0.323,-0.629 0.71,-0.629h12.569c0.404,0 0.726,0.258 0.726,0.629v2.131c-0.005,0.358 -0.344,0.825 -0.946,1.564l-6.513,8.241c2.42,-0.052 4.975,0.267 7.169,1.364c0.495,0.247 0.629,0.61 0.667,0.967v2.655c0,0.363 -0.452,0.787 -0.925,0.567c-3.867,-1.797 -9.004,-1.992 -13.279,0.02c-0.436,0.209 -0.893,-0.21 -0.893,-0.572v-2.522c0,-0.405 0.005,-1.096 0.462,-1.711l7.546,-9.591h-6.567c-0.403,0 -0.726,-0.253 -0.726,-0.624z" fill="black"/>
<path fill-rule="evenodd" clip-rule="evenodd" d="M125.568,31.129h-3.824c-0.365,-0.024 -0.656,-0.267 -0.683,-0.577v-17.394c0,-0.348 0.328,-0.624 0.737,-0.624h3.566c0.371,0.014 0.667,0.267 0.694,0.581v2.274h0.07c0.93,-2.197 2.678,-3.222 5.034,-3.222c2.393,0 3.888,1.025 4.964,3.222c0.925,-2.197 3.028,-3.222 5.281,-3.222c1.603,0 3.356,0.586 4.427,1.902c1.21,1.463 0.962,3.589 0.962,5.453l-0.005,10.978c0,0.348 -0.328,0.629 -0.737,0.629h-3.818c-0.382,-0.024 -0.689,-0.296 -0.689,-0.629v-9.219c0,-0.734 0.076,-2.565 -0.107,-3.261c-0.285,-1.167 -1.141,-1.496 -2.248,-1.496c-0.926,0 -1.894,0.548 -2.286,1.425c-0.393,0.877 -0.355,2.345 -0.355,3.332v9.219c0,0.348 -0.328,0.629 -0.737,0.629h-3.819c-0.387,-0.024 -0.688,-0.296 -0.688,-0.629l-0.005,-9.219c0,-1.94 0.36,-4.795 -2.356,-4.795c-2.748,0 -2.641,2.783 -2.641,4.795v9.219c0,0.348 -0.328,0.629 -0.737,0.629z" fill="black"/>
<path fill-rule="evenodd" clip-rule="evenodd" d="M196.244,12.167c5.674,0 8.745,4.319 8.745,9.81c0,5.305 -3.393,9.514 -8.745,9.514c-5.572,0 -8.605,-4.319 -8.605,-9.7c0,-5.415 3.071,-9.624 8.605,-9.624zM196.276,15.718c-2.818,0 -2.995,3.404 -2.995,5.525c0,2.126 -0.038,6.664 2.963,6.664c2.964,0 3.103,-3.661 3.103,-5.892c0,-1.468 -0.069,-3.222 -0.57,-4.614c-0.43,-1.211 -1.285,-1.683 -2.501,-1.683z" fill="black"/>
<path fill-rule="evenodd" clip-rule="evenodd" d="M212.347,31.129h-3.808c-0.382,-0.024 -0.688,-0.296 -0.688,-0.629l-0.006,-17.399c0.033,-0.319 0.35,-0.567 0.737,-0.567h3.544c0.334,0.014 0.608,0.214 0.683,0.486v2.66h0.07c1.071,-2.379 2.571,-3.513 5.212,-3.513c1.716,0 3.388,0.548 4.464,2.05c1,1.391 1,3.732 1,5.415v10.949c-0.043,0.305 -0.36,0.548 -0.737,0.548h-3.834c-0.35,-0.024 -0.64,-0.253 -0.678,-0.548v-9.448c0,-1.902 0.247,-4.686 -2.393,-4.686c-0.931,0 -1.786,0.553 -2.211,1.392c-0.538,1.063 -0.607,2.121 -0.607,3.294v9.367c-0.006,0.348 -0.339,0.629 -0.748,0.629z" fill="black"/>
<path fill-rule="evenodd" clip-rule="evenodd" d="M161.399,22.82c0,1.321 0.037,2.422 -0.716,3.595c-0.608,0.953 -1.576,1.539 -2.646,1.539c-1.468,0 -2.329,-0.991 -2.329,-2.455c0,-2.888 2.921,-3.413 5.691,-3.413zM165.255,31.081c-0.253,0.2 -0.619,0.215 -0.904,0.081c-1.269,-0.934 -1.5,-1.368 -2.194,-2.259c-2.098,1.897 -3.587,2.464 -6.303,2.464c-3.222,0 -5.723,-1.759 -5.723,-5.281c0,-2.751 1.678,-4.624 4.077,-5.539c2.076,-0.811 4.975,-0.954 7.191,-1.178v-0.438c0,-0.806 0.069,-1.759 -0.468,-2.455c-0.463,-0.624 -1.356,-0.882 -2.146,-0.882c-1.458,0 -2.754,0.663 -3.071,2.035c-0.065,0.306 -0.318,0.606 -0.667,0.62l-3.706,-0.353c-0.312,-0.062 -0.661,-0.286 -0.57,-0.71c0.85,-3.985 4.916,-5.186 8.552,-5.186c1.86,0 4.291,0.439 5.76,1.687c1.861,1.54 1.683,3.595 1.683,5.83v5.282c0,1.587 0.742,2.283 1.441,3.141c0.242,0.305 0.296,0.672 -0.016,0.901c-0.78,0.577 -2.167,1.649 -2.931,2.25z" fill="black"/>
<path fill-rule="evenodd" clip-rule="evenodd" d="M111.267,22.82c0,1.321 0.038,2.422 -0.715,3.595c-0.608,0.953 -1.57,1.539 -2.646,1.539c-1.468,0 -2.323,-0.991 -2.323,-2.455c0,-2.888 2.92,-3.413 5.684,-3.413zM115.124,31.081c-0.253,0.2 -0.619,0.215 -0.904,0.081c-1.269,-0.934 -1.495,-1.368 -2.194,-2.259c-2.098,1.897 -3.582,2.464 -6.304,2.464c-3.216,0 -5.722,-1.759 -5.722,-5.281c0,-2.751 1.683,-4.624 4.077,-5.539c2.076,-0.811 4.975,-0.954 7.19,-1.178v-0.438c0,-0.806 0.07,-1.759 -0.462,-2.455c-0.468,-0.624 -1.361,-0.882 -2.146,-0.882c-1.457,0 -2.759,0.663 -3.076,2.035c-0.065,0.306 -0.318,0.606 -0.662,0.62l-3.711,-0.353c-0.312,-0.062 -0.656,-0.286 -0.57,-0.71c0.855,-3.985 4.916,-5.186 8.551,-5.186c1.861,0 4.292,0.439 5.761,1.687c1.86,1.54 1.683,3.595 1.683,5.83v5.282c0,1.587 0.742,2.283 1.441,3.141c0.248,0.305 0.302,0.672 -0.01,0.901c-0.78,0.577 -2.168,1.649 -2.932,2.25z" fill="black"/>
</g>
</g>
<g id="Company logo_2" style="mix-blend-mode:luminosity" clip-path="url(#clip4_330_762)">
<path id="Vector_36" fill-rule="evenodd" clip-rule="evenodd" d="M445.59,30.563c-5.255,7.898 -13.579,5.606 -16.078,3.812c-1.064,0.64 -2.93,2.042 -5.417,1.88c-5.298,-0.345 -7.195,-7.054 -7.195,-7.054c0.038,0.027 -1.578,0.494 -2.452,0.486c-0.011,1.967 -1.93,6.668 -7.109,6.607c-5.812,-0.067 -6.994,-7.741 -6.994,-7.741c0,0 -0.578,0.712 -2.777,1.421c0.11,-1.512 0.03,6.09 -6.936,6.202c-5.507,0.089 -6.994,-7.741 -6.994,-7.741c0,0 -0.955,0.879 -2.807,1.184c0.118,-1.536 -0.073,6.583 -7.04,6.557c-4.708,-0.017 -6.317,-4.823 -6.192,-5.49c0.16,-0.85 -1.591,5.61 -6.164,5.509c-1.887,-0.049 -3.294,-1.26 -4.177,-2.875c-1.182,1.199 -2.898,2.875 -4.823,2.875c-3.455,0 -4.978,-2.561 -4.72,-9.877c0.022,-0.868 -0.049,-1.209 -1.022,-1.339c-0.584,-0.086 -1.182,-0.25 -1.815,-0.336c-0.203,0.6 -1.924,11.357 -7.841,11.561c-1.985,0.068 -3.07,-1.456 -3.962,-2.587c-1.366,1.602 -3.17,2.638 -5.739,2.638c-4.353,0 -7.318,-3.119 -7.318,-6.965c0,-3.848 2.965,-6.966 7.318,-6.966c0.769,0 0.985,0.098 1.688,0.28c-1.445,-11.668 1.969,-13.491 4.956,-13.491c2.868,0 7.767,5.899 0.873,20.862c1.531,4.463 4.83,4.211 6.416,-4.977c0.323,-1.867 -0.54,-4.387 0.802,-4.739c2.453,-0.643 2.713,1.286 3.864,1.607c1.216,0.34 1.926,0.306 3.094,0.523c1.995,0.345 2.773,1.295 2.53,3.411c-0.292,2.677 -0.802,6.573 0.755,7.048c1.123,0.345 3.173,-1.719 3.532,-2.848c0.36,-1.129 0.435,-1.516 0.467,-2.344c0.049,-1.77 0.11,-3.067 0.45,-4.406c0.146,-0.518 0.312,-0.861 0.973,-0.885c0.545,-0.012 1.54,-0.157 1.978,0.145c0.583,0.389 0.511,0.783 0.443,1.822c-0.678,14.803 4.547,7.413 6.106,1.496c-0.555,-6.691 -0.174,-16.592 4.557,-16.759c2.46,-0.086 3.548,1.661 3.667,2.965c0.339,3.683 -1.557,9.783 -4.05,13.886c-1.425,8.371 6.23,10.026 7.454,3.344c-2.003,-0.844 -4.167,-4.26 -2.406,-5.924c0.988,-0.935 5.102,0.408 5.169,3.335c2.018,-0.479 2.288,-1.488 2.316,-1.321c-0.555,-6.691 -0.04,-16.118 4.691,-16.284c2.46,-0.087 3.547,1.66 3.667,2.964c0.338,3.683 -1.557,9.783 -4.05,13.886c-1.425,8.371 6.23,10.026 7.454,3.344c-1.483,-0.253 -4.613,-3.886 -2.807,-5.924c0.965,-1.089 5.064,1.175 5.522,3.432c1.939,-0.486 2.202,-1.464 2.23,-1.3c-0.555,-6.69 -0.04,-16.118 4.691,-16.284c2.46,-0.086 3.547,1.661 3.667,2.965c0.339,3.682 -1.557,9.783 -4.05,13.886c-1.425,8.371 6.23,10.025 7.454,3.344c-2.038,-0.301 -4.934,-4.137 -2.603,-6.1c0.931,-0.784 4.489,1.252 5.322,3.574c1.157,-0.04 1.878,-0.393 2.032,-0.429c-1.847,-7.855 -0.472,-17.28 4.617,-17.358c2.751,-0.043 5.441,1.318 4.26,8.791c-1.127,7.13 -5.177,10.122 -5.167,10.168c0.235,0.854 2.314,8.002 7.547,4.23c-0.271,-0.543 -0.542,-1.099 -0.694,-1.772c-0.867,-3.919 0.837,-8.347 5.468,-9.062c2.653,-0.41 5.153,0.735 5.548,3.316c0.65,4.224 -3.653,7.282 -5.289,7.946c-0.733,-0.369 6.643,3.824 11.021,-4.579c0.254,-0.48 0.56,-0.439 0.956,-0.192c0.28,0.175 1.875,1.514 1.133,2.647zM330.502,28.252c-0.223,-0.59 -0.68,-1.891 -0.842,-2.454c-0.89,-0.687 -1.525,-0.798 -2.668,-0.798c-2.539,0 -4.034,2.081 -4.034,4.325c0,2.243 1.628,4.325 4.168,4.325c2.2,0 3.875,-1.327 4.386,-3.204c-0.357,-0.732 -0.712,-1.404 -1.01,-2.194zM333.918,12.201c-1.784,0 -2.39,3.773 -2.272,6.991c0.104,2.846 1.001,5.351 1.466,6.473c0.118,0.141 0.096,0.049 0.202,0.199c3.098,-6.017 1.813,-13.663 0.604,-13.663zM371.074,12.32c-2.306,-0.234 -2.291,8.28 -2.005,10.19c1.198,-1.698 3.279,-9.733 2.005,-10.19zM387.915,12.32c-2.306,-0.234 -2.291,8.28 -2.005,10.19c1.198,-1.698 3.279,-9.733 2.005,-10.19zM404.622,12.438c-2.306,-0.234 -2.291,8.281 -2.005,10.191c1.198,-1.699 3.279,-9.733 2.005,-10.191zM421.062,11.822c-3.593,0.639 -2.756,11.257 -2.211,13.119c4.233,-5.152 4.32,-13.313 2.211,-13.119zM434.528,25.09c-0.182,-0.677 -1.096,-1.039 -1.726,-0.949c-1.805,0.218 -3.554,2.209 -2.877,5.241c0.151,0.676 0.528,1.297 0.522,1.277c4.038,-2.401 4.381,-4.293 4.081,-5.569zM358.444,20.022c-0.516,0 -1.02,-0.136 -1.449,-0.389c-0.429,-0.254 -0.763,-0.615 -0.96,-1.037c-0.198,-0.422 -0.249,-0.887 -0.149,-1.335c0.101,-0.449 0.349,-0.86 0.714,-1.183c0.364,-0.324 0.829,-0.544 1.335,-0.633c0.505,-0.089 1.03,-0.043 1.506,0.132c0.476,0.174 0.883,0.471 1.17,0.851c0.286,0.38 0.439,0.826 0.439,1.283c0,0.304 -0.067,0.604 -0.198,0.884c-0.131,0.281 -0.323,0.535 -0.565,0.75c-0.242,0.215 -0.529,0.385 -0.846,0.501c-0.316,0.116 -0.655,0.176 -0.997,0.176z" fill="#0D0C22"/>
</g>
<g id="Company logo_3" style="mix-blend-mode:luminosity" clip-path="url(#clip5_330_762)">
<g id="Vector_37">
<path d="M556.181,13.106v9.088h-9.417v-9.088h-4.471v21.694h4.471v-8.793h9.417v8.793h4.47v-21.694z" fill="#33475B"/>
<path d="M574.96,27.787c0,0.869 -0.39,1.703 -1.084,2.318c-0.693,0.615 -1.634,0.96 -2.615,0.96c-0.981,0 -1.922,-0.345 -2.615,-0.96c-0.694,-0.615 -1.084,-1.449 -1.084,-2.318v-9.292h-4.24v9.292c0,1.864 0.835,3.652 2.323,4.971c1.487,1.318 3.505,2.059 5.608,2.059c2.104,0 4.122,-0.741 5.609,-2.059c1.487,-1.319 2.323,-3.107 2.323,-4.971v-9.292h-4.225z" fill="#33475B"/>
<path d="M606.381,19.453c0,-1.905 1.422,-2.508 2.979,-2.508c1.255,0 2.913,0.846 3.998,1.873l2.777,-2.9c-1.386,-1.662 -4.199,-2.812 -6.501,-2.812c-4.6,0 -7.927,2.388 -7.927,6.347c0,7.344 10.128,5.015 10.128,9.125c0,1.267 -1.388,2.387 -2.979,2.387c-2.508,0 -3.32,-1.087 -4.473,-2.236l-3.082,2.84c1.972,2.146 4.403,3.235 7.317,3.235c4.37,0 7.885,-2.417 7.885,-6.195c0,-8.154 -10.128,-5.621 -10.128,-9.156" fill="#33475B"/>
<path d="M669.042,31.334c-2.506,0 -3.218,-0.961 -3.218,-2.432v-6.514h3.895v-3.3h-3.895v-4.355l-4.299,1.71v13.268c0,3.394 2.641,5.104 6.264,5.104c0.569,0.009 1.136,-0.031 1.696,-0.12l1.049,-3.423c-0.473,0.029 -1.016,0.058 -1.492,0.058" fill="#33475B"/>
<path d="M591.102,18.605c-2.1,0 -3.566,0.54 -4.983,1.772v-7.14h-4.247v13.234c0,4.955 4.041,8.349 8.582,8.349c5.038,0 9.47,-3.454 9.47,-8.106c0,-4.593 -4.079,-8.107 -8.822,-8.107zM591.076,31.032c-0.953,0 -1.885,-0.251 -2.677,-0.72c-0.793,-0.469 -1.41,-1.136 -1.775,-1.917c-0.365,-0.78 -0.46,-1.639 -0.274,-2.468c0.186,-0.828 0.645,-1.589 1.319,-2.186c0.674,-0.598 1.532,-1.004 2.467,-1.169c0.935,-0.165 1.904,-0.081 2.784,0.243c0.881,0.323 1.634,0.87 2.163,1.573c0.53,0.702 0.812,1.528 0.812,2.373c0,1.133 -0.507,2.219 -1.411,3.02c-0.904,0.801 -2.13,1.251 -3.408,1.251z" fill="#33475B"/>
<path d="M637.221,26.515c0,-4.659 -4.423,-8.105 -9.47,-8.105c-4.541,0 -8.582,3.393 -8.582,8.348v13.242h4.247v-7.15c1.415,1.231 2.883,1.773 4.982,1.773c4.742,0 8.821,-3.512 8.821,-8.108zM633.199,26.469c0,0.844 -0.283,1.67 -0.812,2.373c-0.53,0.702 -1.282,1.249 -2.163,1.573c-0.88,0.323 -1.849,0.408 -2.784,0.243c-0.935,-0.165 -1.794,-0.572 -2.468,-1.169c-0.674,-0.598 -1.133,-1.359 -1.318,-2.187c-0.186,-0.829 -0.091,-1.687 0.274,-2.468c0.364,-0.78 0.982,-1.447 1.775,-1.917c0.792,-0.469 1.724,-0.719 2.677,-0.719c1.278,0 2.504,0.45 3.408,1.251c0.903,0.801 1.411,1.887 1.411,3.02z" fill="#33475B"/>
</g>
<path id="Vector_38" d="M650.9,18.35v-3.743c0.558,-0.231 1.03,-0.598 1.362,-1.058c0.332,-0.46 0.51,-0.994 0.513,-1.54v-0.087c-0.003,-0.763 -0.346,-1.494 -0.954,-2.034c-0.609,-0.539 -1.434,-0.843 -2.295,-0.845h-0.098c-0.861,0.002 -1.686,0.306 -2.295,0.845c-0.608,0.54 -0.951,1.271 -0.954,2.034v0.087c0.003,0.546 0.181,1.08 0.513,1.54c0.332,0.46 0.804,0.827 1.362,1.058v3.743c-1.604,0.217 -3.116,0.806 -4.381,1.708l-11.596,-7.997c0.082,-0.263 0.127,-0.535 0.131,-0.809c0.001,-0.643 -0.213,-1.271 -0.615,-1.805c-0.402,-0.535 -0.974,-0.952 -1.643,-1.198c-0.669,-0.247 -1.406,-0.312 -2.117,-0.187c-0.711,0.124 -1.365,0.433 -1.878,0.887c-0.513,0.453 -0.863,1.032 -1.005,1.662c-0.142,0.629 -0.07,1.283 0.206,1.876c0.277,0.594 0.746,1.102 1.348,1.459c0.602,0.358 1.31,0.549 2.035,0.55c0.637,-0.002 1.262,-0.153 1.812,-0.437l11.401,7.867c-1.027,1.373 -1.562,2.989 -1.537,4.636c0.025,1.647 0.611,3.249 1.68,4.597l-3.47,3.075c-0.279,-0.078 -0.569,-0.12 -0.861,-0.124c-0.596,0 -1.178,0.157 -1.673,0.45c-0.496,0.293 -0.882,0.71 -1.11,1.198c-0.228,0.488 -0.287,1.024 -0.171,1.542c0.116,0.518 0.403,0.994 0.824,1.367c0.421,0.373 0.958,0.628 1.542,0.731c0.585,0.103 1.19,0.05 1.741,-0.152c0.55,-0.202 1.02,-0.545 1.351,-0.984c0.331,-0.438 0.508,-0.955 0.508,-1.483c-0.004,-0.259 -0.051,-0.516 -0.14,-0.763l3.432,-3.042c1.121,0.759 2.422,1.28 3.805,1.525c1.382,0.245 2.81,0.207 4.173,-0.112c1.363,-0.319 2.626,-0.909 3.693,-1.726c1.067,-0.818 1.908,-1.84 2.461,-2.99c0.553,-1.149 0.802,-2.396 0.728,-3.643c-0.073,-1.248 -0.468,-2.465 -1.153,-3.557c-0.685,-1.092 -1.642,-2.031 -2.799,-2.746c-1.157,-0.714 -2.483,-1.184 -3.876,-1.375zM649.478,30.662c-0.939,0 -1.857,-0.247 -2.638,-0.709c-0.781,-0.463 -1.39,-1.12 -1.749,-1.889c-0.36,-0.769 -0.454,-1.616 -0.271,-2.432c0.184,-0.817 0.636,-1.566 1.3,-2.155c0.664,-0.589 1.51,-0.99 2.432,-1.152c0.921,-0.162 1.876,-0.079 2.743,0.24c0.868,0.318 1.61,0.858 2.132,1.55c0.522,0.692 0.8,1.506 0.8,2.338c0,1.116 -0.5,2.187 -1.391,2.976c-0.89,0.79 -2.098,1.233 -3.358,1.233z" fill="#FF7A59"/>
</g>
<g id="Company logo_4" style="mix-blend-mode:luminosity" clip-path="url(#clip6_330_762)">
<g id="Vector_39">
<path d="M817.525,34.775v-14.555h0.293l11.954,14.555h3.761v-21.374h-4.179v14.518h-0.293l-11.954,-14.518h-3.762v21.374zM845.362,35.105c5.517,0 8.903,-3.153 8.903,-8.433c0,-5.242 -3.386,-8.432 -8.903,-8.432c-5.476,0 -8.903,3.19 -8.903,8.432c0.042,5.28 3.386,8.433 8.903,8.433zM845.362,32.025c-2.926,0 -4.598,-1.943 -4.598,-5.353c0,-3.372 1.672,-5.352 4.598,-5.352c2.926,0 4.597,1.98 4.597,5.352c0,3.41 -1.671,5.353 -4.597,5.353zM858.068,14.611v4.069h-2.926v2.933h2.926v8.836c0,3.153 1.672,4.399 5.935,4.399c0.794,0 1.589,-0.073 2.216,-0.183v-2.86c-0.502,0.037 -0.836,0.074 -1.422,0.074c-1.755,0 -2.549,-0.697 -2.549,-2.31v-7.956h3.971v-2.933h-3.971v-4.069zM868.726,34.775h4.18v-16.205h-4.18zM870.816,15.894c1.38,0 2.508,-0.99 2.508,-2.2c0,-1.247 -1.128,-2.236 -2.508,-2.236c-1.379,0 -2.508,0.989 -2.508,2.236c0,1.21 1.129,2.2 2.508,2.2zM884.358,35.105c5.518,0 8.903,-3.153 8.903,-8.433c0,-5.242 -3.385,-8.432 -8.903,-8.432c-5.475,0 -8.902,3.19 -8.902,8.432c0,5.28 3.343,8.433 8.902,8.433zM884.358,32.025c-2.925,0 -4.597,-1.943 -4.597,-5.353c0,-3.372 1.672,-5.352 4.597,-5.352c2.884,0 4.598,1.98 4.598,5.352c-0.042,3.41 -1.714,5.353 -4.598,5.353zM895.727,34.775h4.18v-9.422c0,-2.383 1.588,-3.887 4.054,-3.887c2.55,0 3.72,1.247 3.72,3.703v9.606h4.18v-10.486c0,-3.886 -2.257,-6.049 -6.353,-6.049c-2.759,0 -4.598,1.1 -5.476,2.933h-0.292v-2.603h-4.055c0.042,0 0.042,16.205 0.042,16.205z" fill="black"/>
<path fill-rule="evenodd" clip-rule="evenodd" d="M773.269,12.033c1.217,0.869 1.657,0.801 3.934,0.663l21.457,-1.144c0.466,0 0.078,-0.412 -0.077,-0.458l-3.572,-2.266c-0.673,-0.458 -1.605,-1.007 -3.339,-0.87l-20.758,1.351c-0.751,0.068 -0.906,0.412 -0.596,0.664zM774.563,16.45v19.96c0,1.076 0.596,1.465 1.967,1.396l23.58,-1.213c1.372,-0.069 1.527,-0.801 1.527,-1.671v-19.822c0,-0.87 -0.388,-1.351 -1.216,-1.282l-24.641,1.282c-0.906,0.068 -1.217,0.48 -1.217,1.35zM797.832,17.526c0.156,0.595 0,1.213 -0.673,1.282l-1.139,0.206v14.741c-0.983,0.457 -1.889,0.732 -2.666,0.732c-1.216,0 -1.527,-0.343 -2.433,-1.35l-7.428,-10.323v9.979l2.355,0.458c0,0 0,1.213 -1.889,1.213l-5.229,0.275c-0.155,-0.275 0,-0.939 0.518,-1.076l1.372,-0.343v-13.185l-1.89,-0.137c-0.155,-0.595 0.233,-1.465 1.295,-1.533l5.616,-0.344l7.739,10.438v-9.225l-1.967,-0.206c-0.155,-0.732 0.466,-1.281 1.217,-1.35zM769.18,7.478l21.612,-1.397c2.64,-0.206 3.339,-0.068 4.995,1.007l6.885,4.281c1.139,0.732 1.527,0.938 1.527,1.739v23.508c0,1.465 -0.595,2.335 -2.717,2.472l-25.081,1.35c-1.605,0.069 -2.355,-0.137 -3.184,-1.075l-5.099,-5.837c-0.906,-1.076 -1.294,-1.877 -1.294,-2.816v-20.898c0,-1.213 0.621,-2.197 2.356,-2.334z" fill="black"/>
</g>
</g>
<g id="Company logo_5" style="mix-blend-mode:luminosity" clip-path="url(#clip7_330_762)">
<path id="Vector_40" d="M1025.5,38.066c-1.88,0.294 -3.8,0.381 -5.78,0.616l-6.05,-15.703v16.377c-1.89,0.175 -3.61,0.41 -5.39,0.644v-30h5.02l6.88,17.022v-17.022h5.32zM1035.91,20.986c2.05,0 5.19,-0.088 7.08,-0.088v4.688c-2.35,0 -5.09,0 -7.08,0.088v6.973c3.11,-0.176 6.22,-0.411 9.36,-0.499v4.512l-14.65,1.025v-27.685h14.65v4.688h-9.36zM1064.94,14.688h-5.49v21.562c-1.79,0 -3.57,0 -5.29,0.059v-21.621h-5.49v-4.688h16.27zM1073.53,20.664h7.24v4.688h-7.24v10.634h-5.19v-25.986h14.78v4.688h-9.59zM1091.71,31.885c3.01,0.058 6.05,0.264 8.99,0.41v4.629c-4.72,-0.264 -9.45,-0.527 -14.28,-0.615v-26.309h5.29zM1105.17,37.246c1.68,0.088 3.47,0.176 5.18,0.352v-27.598h-5.18zM1133.53,10l-6.71,14.268l6.71,15.732c-1.99,-0.234 -3.97,-0.557 -5.95,-0.85l-3.8,-8.671l-3.87,7.968c-1.92,-0.293 -3.77,-0.381 -5.69,-0.615l6.81,-13.74l-6.15,-14.092h5.69l3.47,7.881l3.7,-7.881h5.79z" fill="#D81F26"/>
</g>
<g id="Company logo_6" style="mix-blend-mode:luminosity" clip-path="url(#clip8_330_762)">
<path id="Vector_41" fill-rule="evenodd" clip-rule="evenodd" d="M1319.36,20.597c0.42,0.646 0.56,1.38 0.61,2.206l0.06,1.101v7.697l0.06,1.102c0.12,1.799 1.62,3.13 3.66,3.243l1.24,0.054v-12.096l0.06,-1.101c0.05,-0.816 0.19,-1.565 0.62,-2.215c0.43,-0.667 1.06,-1.22 1.82,-1.605c0.75,-0.384 1.6,-0.585 2.48,-0.584c0.87,0.002 1.72,0.206 2.47,0.592c0.76,0.387 1.38,0.942 1.81,1.611c0.43,0.645 0.56,1.394 0.61,2.201l0.06,1.097v7.701l0.06,1.102c0.13,1.808 1.61,3.139 3.67,3.243l1.23,0.054v-13.197c0,-2.333 -1.04,-4.571 -2.9,-6.222c-1.86,-1.65 -4.39,-2.578 -7.02,-2.579c-1.41,-0.001 -2.8,0.264 -4.09,0.778c-1.28,0.514 -2.43,1.265 -3.36,2.203c-0.93,-0.937 -2.08,-1.688 -3.36,-2.202c-1.28,-0.515 -2.68,-0.78 -4.09,-0.78c-2.06,0 -3.97,0.555 -5.56,1.512c-0.96,-0.956 -3.13,-1.512 -4.37,-1.512v21.999l1.24,-0.054c2.08,-0.122 3.58,-1.416 3.66,-3.243l0.07,-1.102v-7.697l0.06,-1.101c0.05,-0.83 0.18,-1.56 0.61,-2.21c0.43,-0.667 1.06,-1.22 1.81,-1.605c0.76,-0.384 1.61,-0.587 2.48,-0.588c0.87,0.001 1.73,0.204 2.48,0.589c0.76,0.386 1.38,0.94 1.82,1.608zM1234.39,35.947l1.24,0.053h18.62l-0.06,-1.097c-0.17,-1.809 -1.62,-3.13 -3.66,-3.248l-1.25,-0.054h-11.16l14.89,-13.202l-0.07,-1.096c-0.09,-1.827 -1.6,-3.147 -3.66,-3.248l-1.24,-0.049l-18.61,-0.005l0.06,1.101c0.16,1.791 1.63,3.14 3.66,3.244l1.24,0.054h11.17l-14.89,13.202l0.06,1.101c0.12,1.813 1.6,3.126 3.66,3.243zM1300.26,17.221c1.15,1.022 2.07,2.234 2.69,3.569c0.62,1.334 0.94,2.765 0.94,4.209c0,1.445 -0.32,2.875 -0.94,4.21c-0.62,1.335 -1.54,2.547 -2.69,3.569c-2.33,2.062 -5.49,3.22 -8.78,3.22c-3.29,0 -6.45,-1.158 -8.78,-3.22c-4.84,-4.296 -4.84,-11.261 0,-15.557c1.15,-1.021 2.52,-1.831 4.03,-2.383c1.5,-0.553 3.11,-0.838 4.74,-0.838c1.63,-0.001 3.25,0.283 4.76,0.836c1.51,0.553 2.88,1.364 4.03,2.386zM1296.75,20.336c1.39,1.238 2.18,2.917 2.18,4.667c0,1.751 -0.79,3.43 -2.18,4.668c-1.4,1.237 -3.29,1.932 -5.27,1.932c-1.97,0 -3.87,-0.695 -5.27,-1.932c-1.39,-1.238 -2.18,-2.917 -2.18,-4.668c0,-1.75 0.79,-3.429 2.18,-4.667c1.4,-1.237 3.3,-1.932 5.27,-1.932c1.98,0 3.87,0.695 5.27,1.932zM1265.43,14c1.62,0 3.24,0.285 4.74,0.838c1.51,0.553 2.87,1.363 4.03,2.384c4.84,4.295 4.84,11.261 0,15.556c-2.33,2.062 -5.49,3.22 -8.78,3.22c-3.29,0 -6.45,-1.158 -8.78,-3.22c-4.85,-4.296 -4.85,-11.261 0,-15.557c1.15,-1.021 2.52,-1.831 4.02,-2.383c1.51,-0.553 3.12,-0.838 4.75,-0.838zM1270.68,20.334c1.4,1.238 2.18,2.917 2.18,4.668c0,1.75 -0.78,3.429 -2.18,4.668c-1.39,1.237 -3.29,1.932 -5.26,1.932c-1.98,0 -3.87,-0.695 -5.27,-1.932c-1.39,-1.239 -2.18,-2.917 -2.18,-4.668c0,-1.75 0.79,-3.429 2.18,-4.667c1.4,-1.237 3.29,-1.932 5.27,-1.932c1.97,0 3.87,0.695 5.26,1.932z" fill="#2D8CFF"/>
</g>
</g></svg>