<svg viewBox="0 0 30 30" fill="none" xmlns="http://www.w3.org/2000/svg" xmlns:xlink="http://www.w3.org/1999/xlink" x="0" y="0"><g id="Social icon_9">
<circle id="Ellipse 13" cx="15" cy="15" r="15" fill="white"/>
<path id="twitter" d="M22,11.49c0.69,-0.52 1.31,-1.14 1.79,-1.86c-0.62,0.28 -1.35,0.48 -2.07,0.55c0.76,-0.45 1.31,-1.14 1.59,-2c-0.69,0.42 -1.49,0.73 -2.28,0.9c-0.69,-0.72 -1.62,-1.14 -2.65,-1.14c-2,0 -3.62,1.62 -3.62,3.62c0,0.28 0.03,0.55 0.1,0.83c-3,-0.17 -5.69,-1.62 -7.48,-3.79c-0.31,0.51 -0.48,1.13 -0.48,1.82c0,1.24 0.62,2.35 1.62,3c-0.59,-0.03 -1.17,-0.17 -1.65,-0.45v0.04c0,1.76 1.24,3.2 2.89,3.55c-0.28,0.07 -0.62,0.14 -0.93,0.14c-0.24,0 -0.45,-0.04 -0.69,-0.07c0.45,1.44 1.79,2.48 3.38,2.51c-1.24,0.97 -2.79,1.55 -4.48,1.55c-0.31,0 -0.59,-0.03 -0.86,-0.06c1.58,1.03 3.48,1.62 5.54,1.62c6.66,0 10.28,-5.49 10.28,-10.28c0,-0.17 0,-0.31 0,-0.48z" fill="currentColor"/>
</g></svg>