<svg viewBox="0 0 30 30" fill="none" xmlns="http://www.w3.org/2000/svg" xmlns:xlink="http://www.w3.org/1999/xlink" x="0" y="0"><g id="Social icon_7">
<circle id="Ellipse 3_7" cx="15" cy="15" r="15" fill="white"/>
<g id="linkedin_7">
<path d="M8.22,22.06h3.09v-9.99h-3.09z" fill="currentColor"/>
<path d="M7.94,8.89c0,0.98 0.8,1.78 1.82,1.78c0.99,0 1.78,-0.8 1.78,-1.78c0,-0.99 -0.79,-1.83 -1.78,-1.83c-1.02,0 -1.82,0.84 -1.82,1.83z" fill="currentColor"/>
<path d="M19.81,22.06h3.13v-5.49c0,-2.67 -0.61,-4.78 -3.74,-4.78c-1.49,0 -2.52,0.85 -2.94,1.64h-0.05v-1.36h-2.94v9.99h3.08v-4.92c0,-1.32 0.24,-2.58 1.87,-2.58c1.59,0 1.59,1.5 1.59,2.62z" fill="currentColor"/>
</g>
</g></svg>