<svg xmlns="http://www.w3.org/2000/svg" viewBox="0 0 400 400" fill="none">
  <!-- 
    ╔══════════════════════════════════════════════════════════════════╗
    ║  JAHYEON SUPREME EDITION - ANIMATED VERSION                      ║
    ║  Quantum Data Core with Pulsating Energy & Rotating Orbits       ║
    ╚══════════════════════════════════════════════════════════════════╝
  -->
  
  <defs>
    <!-- SUPREME GRADIENTS -->
    <linearGradient id="supreme1" x1="0%" y1="0%" x2="100%" y2="100%">
      <stop offset="0%" style="stop-color:#00D9FF">
        <animate attributeName="stop-color" values="#00D9FF;#00FF87;#00D9FF" dur="4s" repeatCount="indefinite"/>
      </stop>
      <stop offset="100%" style="stop-color:#00FF87">
        <animate attributeName="stop-color" values="#00FF87;#00D9FF;#00FF87" dur="4s" repeatCount="indefinite"/>
      </stop>
    </linearGradient>
    
    <linearGradient id="supreme2" x1="0%" y1="0%" x2="100%" y2="100%">
      <stop offset="0%" style="stop-color:#FF00E5"/>
      <stop offset="100%" style="stop-color:#FF6B00"/>
    </linearGradient>
    
    <linearGradient id="supreme3" x1="0%" y1="0%" x2="100%" y2="100%">
      <stop offset="0%" style="stop-color:#7B2FFF"/>
      <stop offset="50%" style="stop-color:#5F72FF"/>
      <stop offset="100%" style="stop-color:#00C6FF"/>
    </linearGradient>
    
    <radialGradient id="coreGlow" cx="50%" cy="50%" r="50%">
      <stop offset="0%" style="stop-color:#FFFFFF"/>
      <stop offset="30%" style="stop-color:#00D9FF"/>
      <stop offset="100%" style="stop-color:#00D9FF;stop-opacity:0"/>
    </radialGradient>
    
    <!-- FILTERS -->
    <filter id="supremeGlow" x="-100%" y="-100%" width="300%" height="300%">
      <feGaussianBlur stdDeviation="12" result="blur1"/>
      <feGaussianBlur stdDeviation="6" result="blur2"/>
      <feGaussianBlur stdDeviation="3" result="blur3"/>
      <feMerge>
        <feMergeNode in="blur1"/>
        <feMergeNode in="blur2"/>
        <feMergeNode in="blur3"/>
        <feMergeNode in="SourceGraphic"/>
      </feMerge>
    </filter>
    
    <filter id="ultraShadow">
      <feDropShadow dx="0" dy="20" stdDeviation="25" flood-color="#7B2FFF" flood-opacity="0.5"/>
      <feDropShadow dx="0" dy="8" stdDeviation="10" flood-color="#00D9FF" flood-opacity="0.3"/>
    </filter>
  </defs>
  
  <!-- ROTATING OUTER ORBITS -->
  <g opacity="0.3">
    <ellipse cx="200" cy="200" rx="180" ry="70" stroke="url(#supreme1)" stroke-width="1" fill="none">
      <animateTransform attributeName="transform" type="rotate" from="0 200 200" to="360 200 200" dur="20s" repeatCount="indefinite"/>
    </ellipse>
    <ellipse cx="200" cy="200" rx="180" ry="70" stroke="url(#supreme2)" stroke-width="1" fill="none">
      <animateTransform attributeName="transform" type="rotate" from="60 200 200" to="420 200 200" dur="25s" repeatCount="indefinite"/>
    </ellipse>
    <ellipse cx="200" cy="200" rx="180" ry="70" stroke="url(#supreme3)" stroke-width="1" fill="none">
      <animateTransform attributeName="transform" type="rotate" from="120 200 200" to="480 200 200" dur="30s" repeatCount="indefinite"/>
    </ellipse>
  </g>
  
  <!-- MAIN ISOMETRIC STRUCTURE -->
  <g filter="url(#ultraShadow)">
    <!-- Outer Hexagonal Shell -->
    <polygon 
      points="200,60 310,125 310,275 200,340 90,275 90,125" 
      stroke="url(#supreme3)" 
      stroke-width="3" 
      fill="none"
    />
    
    <!-- Inner Cube - Top -->
    <polygon 
      points="200,100 270,140 200,180 130,140" 
      fill="url(#supreme3)"
      opacity="0.9"
    />
    <!-- Inner Cube - Left -->
    <polygon 
      points="130,140 200,180 200,260 130,220" 
      fill="#5F72FF"
      opacity="0.85"
    />
    <!-- Inner Cube - Right -->
    <polygon 
      points="270,140 200,180 200,260 270,220" 
      fill="#7B2FFF"
      opacity="0.85"
    />
  </g>
  
  <!-- QUANTUM CORE CENTER -->
  <g filter="url(#supremeGlow)">
    <!-- Pulsating Core -->
    <circle cx="200" cy="180" r="25" fill="url(#coreGlow)">
      <animate attributeName="r" values="20;28;20" dur="2s" repeatCount="indefinite"/>
      <animate attributeName="opacity" values="0.8;1;0.8" dur="2s" repeatCount="indefinite"/>
    </circle>
    
    <!-- Inner Diamond -->
    <polygon points="200,160 215,180 200,200 185,180" fill="#FFFFFF" opacity="0.95"/>
    
    <!-- Core Ring -->
    <circle cx="200" cy="180" r="35" stroke="url(#supreme1)" stroke-width="2" fill="none">
      <animate attributeName="r" values="32;38;32" dur="2s" repeatCount="indefinite"/>
    </circle>
  </g>
  
  <!-- CIRCUIT PATHWAYS -->
  <!-- Left Side -->
  <g stroke="url(#supreme1)" stroke-width="2" stroke-linecap="round" opacity="0.8">
    <path d="M105 145 L140 165" fill="none"/>
    <path d="M100 170 L145 195" fill="none"/>
    <path d="M105 195 L140 215" fill="none"/>
    <path d="M100 220 L130 238" fill="none"/>
    <circle cx="105" cy="145" r="4" fill="url(#supreme1)"/>
    <circle cx="100" cy="170" r="3" fill="url(#supreme1)"/>
    <circle cx="105" cy="195" r="4" fill="url(#supreme1)"/>
    <circle cx="100" cy="220" r="3" fill="url(#supreme1)"/>
  </g>
  
  <!-- Right Side -->
  <g stroke="url(#supreme2)" stroke-width="2" stroke-linecap="round" opacity="0.8">
    <path d="M295 145 L260 165" fill="none"/>
    <path d="M300 170 L255 195" fill="none"/>
    <path d="M295 195 L260 215" fill="none"/>
    <path d="M300 220 L270 238" fill="none"/>
    <circle cx="295" cy="145" r="4" fill="url(#supreme2)"/>
    <circle cx="300" cy="170" r="3" fill="url(#supreme2)"/>
    <circle cx="295" cy="195" r="4" fill="url(#supreme2)"/>
    <circle cx="300" cy="220" r="3" fill="url(#supreme2)"/>
  </g>
  
  <!-- FLOATING DATA NODES -->
  <!-- Top -->
  <g filter="url(#supremeGlow)">
    <circle cx="200" cy="35" r="10" fill="url(#supreme1)"/>
    <line x1="200" y1="45" x2="200" y2="60" stroke="url(#supreme1)" stroke-width="2"/>
    <circle cx="200" cy="35" r="5" fill="#fff" opacity="0.8">
      <animate attributeName="r" values="3;6;3" dur="1.5s" repeatCount="indefinite"/>
    </circle>
  </g>
  
  <!-- Bottom -->
  <g filter="url(#supremeGlow)">
    <circle cx="200" cy="365" r="10" fill="url(#supreme3)"/>
    <line x1="200" y1="355" x2="200" y2="340" stroke="url(#supreme3)" stroke-width="2"/>
  </g>
  
  <!-- Left -->
  <g filter="url(#supremeGlow)">
    <circle cx="50" cy="200" r="8" fill="url(#supreme1)"/>
    <line x1="58" y1="200" x2="90" y2="180" stroke="url(#supreme1)" stroke-width="1.5"/>
  </g>
  
  <!-- Right -->
  <g filter="url(#supremeGlow)">
    <circle cx="350" cy="200" r="8" fill="url(#supreme2)"/>
    <line x1="342" y1="200" x2="310" y2="180" stroke="url(#supreme2)" stroke-width="1.5"/>
  </g>
  
  <!-- CORNER ACCENTS -->
  <g fill="url(#supreme3)">
    <circle cx="200" cy="60" r="5"/>
    <circle cx="310" cy="125" r="5"/>
    <circle cx="310" cy="275" r="5"/>
    <circle cx="200" cy="340" r="5"/>
    <circle cx="90" cy="275" r="5"/>
    <circle cx="90" cy="125" r="5"/>
  </g>
  
  <!-- MICRO PARTICLES -->
  <g opacity="0.5">
    <circle cx="150" cy="90" r="2" fill="url(#supreme1)">
      <animate attributeName="opacity" values="0.3;1;0.3" dur="2s" repeatCount="indefinite"/>
    </circle>
    <circle cx="250" cy="90" r="2" fill="url(#supreme2)">
      <animate attributeName="opacity" values="1;0.3;1" dur="2s" repeatCount="indefinite"/>
    </circle>
    <circle cx="75" cy="250" r="2" fill="url(#supreme1)"/>
    <circle cx="325" cy="250" r="2" fill="url(#supreme2)"/>
    <circle cx="160" cy="320" r="2" fill="url(#supreme3)"/>
    <circle cx="240" cy="320" r="2" fill="url(#supreme3)"/>
  </g>
  
  <!-- EDGE HIGHLIGHTS -->
  <path d="M200 60 L310 125" stroke="url(#supreme1)" stroke-width="1" opacity="0.5"/>
  <path d="M200 60 L90 125" stroke="url(#supreme2)" stroke-width="1" opacity="0.5"/>
</svg>
