<svg xmlns="http://www.w3.org/2000/svg" viewBox="0 0 80 80" fill="none">
  <!-- GJ Logo - Chip/Processor Style -->
  <!-- Outer square with rounded corners -->
  <rect x="10" y="10" width="60" height="60" rx="8" stroke="#4361EE" stroke-width="3" fill="none"/>
  
  <!-- Chip pins -->
  <line x1="20" y1="10" x2="20" y2="2" stroke="#4361EE" stroke-width="2"/>
  <line x1="40" y1="10" x2="40" y2="2" stroke="#4361EE" stroke-width="2"/>
  <line x1="60" y1="10" x2="60" y2="2" stroke="#4361EE" stroke-width="2"/>
  <line x1="20" y1="70" x2="20" y2="78" stroke="#4361EE" stroke-width="2"/>
  <line x1="40" y1="70" x2="40" y2="78" stroke="#4361EE" stroke-width="2"/>
  <line x1="60" y1="70" x2="60" y2="78" stroke="#4361EE" stroke-width="2"/>
  <line x1="10" y1="25" x2="2" y2="25" stroke="#4361EE" stroke-width="2"/>
  <line x1="10" y1="40" x2="2" y2="40" stroke="#4361EE" stroke-width="2"/>
  <line x1="10" y1="55" x2="2" y2="55" stroke="#4361EE" stroke-width="2"/>
  <line x1="70" y1="25" x2="78" y2="25" stroke="#4361EE" stroke-width="2"/>
  <line x1="70" y1="40" x2="78" y2="40" stroke="#4361EE" stroke-width="2"/>
  <line x1="70" y1="55" x2="78" y2="55" stroke="#4361EE" stroke-width="2"/>
  
  <!-- Face inside chip -->
  <circle cx="30" cy="35" r="7" fill="#4361EE"/>
  <circle cx="50" cy="35" r="7" fill="#4361EE"/>
  <path d="M28 52 Q40 60 52 52" stroke="#4361EE" stroke-width="2.5" stroke-linecap="round" fill="none"/>
</svg>
