<svg xmlns="http://www.w3.org/2000/svg" viewBox="0 0 400 400" fill="none">
  <!-- 
    ╔══════════════════════════════════════════════════════════════════╗
    ║  JAHYEON ULTIMATE MASTERPIECE LOGO                               ║
    ║  Top 0.000000000000001% Premium IT Engineering Logo              ║
    ║  Isometric Quantum Processor with Neural Network Architecture     ║
    ╚══════════════════════════════════════════════════════════════════╝
  -->
  
  <defs>
    <!-- ═══════════ PREMIUM GRADIENTS ═══════════ -->
    <!-- Primary Cosmic Gradient -->
    <linearGradient id="cosmicPrimary" x1="0%" y1="0%" x2="100%" y2="100%">
      <stop offset="0%" style="stop-color:#667EEA"/>
      <stop offset="25%" style="stop-color:#764BA2"/>
      <stop offset="50%" style="stop-color:#6B8DD6"/>
      <stop offset="75%" style="stop-color:#8E37D7"/>
      <stop offset="100%" style="stop-color:#4F46E5"/>
    </linearGradient>
    
    <!-- Cyber Neon Gradient -->
    <linearGradient id="cyberNeon" x1="0%" y1="0%" x2="100%" y2="0%">
      <stop offset="0%" style="stop-color:#00F5FF"/>
      <stop offset="50%" style="stop-color:#00D4FF"/>
      <stop offset="100%" style="stop-color:#0099FF"/>
    </linearGradient>
    
    <!-- Plasma Energy Gradient -->
    <linearGradient id="plasmaEnergy" x1="0%" y1="100%" x2="100%" y2="0%">
      <stop offset="0%" style="stop-color:#F093FB"/>
      <stop offset="50%" style="stop-color:#F5576C"/>
      <stop offset="100%" style="stop-color:#FF6B6B"/>
    </linearGradient>
    
    <!-- Holographic Shift -->
    <linearGradient id="holoShift" x1="0%" y1="0%" x2="100%" y2="100%">
      <stop offset="0%" style="stop-color:#43E97B"/>
      <stop offset="33%" style="stop-color:#38F9D7"/>
      <stop offset="66%" style="stop-color:#4FACFE"/>
      <stop offset="100%" style="stop-color:#00F2FE"/>
    </linearGradient>
    
    <!-- Deep Space -->
    <linearGradient id="deepSpace" x1="0%" y1="0%" x2="0%" y2="100%">
      <stop offset="0%" style="stop-color:#0F0C29"/>
      <stop offset="50%" style="stop-color:#302B63"/>
      <stop offset="100%" style="stop-color:#24243E"/>
    </linearGradient>
    
    <!-- Cube Face Gradients -->
    <linearGradient id="cubeTopFace" x1="0%" y1="0%" x2="100%" y2="100%">
      <stop offset="0%" style="stop-color:#A78BFA"/>
      <stop offset="100%" style="stop-color:#8B5CF6"/>
    </linearGradient>
    <linearGradient id="cubeLeftFace" x1="0%" y1="0%" x2="100%" y2="100%">
      <stop offset="0%" style="stop-color:#7C3AED"/>
      <stop offset="100%" style="stop-color:#5B21B6"/>
    </linearGradient>
    <linearGradient id="cubeRightFace" x1="100%" y1="0%" x2="0%" y2="100%">
      <stop offset="0%" style="stop-color:#6366F1"/>
      <stop offset="100%" style="stop-color:#4338CA"/>
    </linearGradient>
    
    <!-- ═══════════ ADVANCED FILTERS ═══════════ -->
    <!-- Mega Glow -->
    <filter id="megaGlow" x="-50%" y="-50%" width="200%" height="200%">
      <feGaussianBlur stdDeviation="8" result="blur1"/>
      <feGaussianBlur stdDeviation="4" result="blur2"/>
      <feGaussianBlur stdDeviation="2" result="blur3"/>
      <feMerge>
        <feMergeNode in="blur1"/>
        <feMergeNode in="blur2"/>
        <feMergeNode in="blur3"/>
        <feMergeNode in="SourceGraphic"/>
      </feMerge>
    </filter>
    
    <!-- Soft Shadow -->
    <filter id="softShadow" x="-50%" y="-50%" width="200%" height="200%">
      <feDropShadow dx="0" dy="12" stdDeviation="16" flood-color="#4F46E5" flood-opacity="0.35"/>
      <feDropShadow dx="0" dy="4" stdDeviation="6" flood-color="#7C3AED" flood-opacity="0.2"/>
    </filter>
    
    <!-- Inner Light -->
    <filter id="innerLight">
      <feGaussianBlur in="SourceAlpha" stdDeviation="3" result="blur"/>
      <feOffset in="blur" dx="0" dy="2" result="offsetBlur"/>
      <feComposite in="SourceGraphic" in2="offsetBlur" operator="over"/>
    </filter>
    
    <!-- Holographic Effect -->
    <filter id="holoEffect">
      <feTurbulence type="fractalNoise" baseFrequency="0.01" numOctaves="3" result="noise"/>
      <feDisplacementMap in="SourceGraphic" in2="noise" scale="2" xChannelSelector="R" yChannelSelector="G"/>
    </filter>
    
    <!-- ═══════════ CLIP PATHS ═══════════ -->
    <clipPath id="hexClip">
      <polygon points="200,40 340,110 340,290 200,360 60,290 60,110"/>
    </clipPath>
  </defs>
  
  <!-- ═══════════ BACKGROUND ELEMENTS ═══════════ -->
  <!-- Outer Glow Ring -->
  <circle cx="200" cy="200" r="180" stroke="url(#cosmicPrimary)" stroke-width="1" fill="none" opacity="0.15"/>
  <circle cx="200" cy="200" r="175" stroke="url(#cyberNeon)" stroke-width="0.5" fill="none" opacity="0.1"/>
  
  <!-- Orbital Rings -->
  <ellipse cx="200" cy="200" rx="160" ry="60" stroke="url(#holoShift)" stroke-width="1" fill="none" opacity="0.2" transform="rotate(-30 200 200)"/>
  <ellipse cx="200" cy="200" rx="160" ry="60" stroke="url(#plasmaEnergy)" stroke-width="1" fill="none" opacity="0.15" transform="rotate(30 200 200)"/>
  <ellipse cx="200" cy="200" rx="160" ry="60" stroke="url(#cyberNeon)" stroke-width="1" fill="none" opacity="0.1" transform="rotate(90 200 200)"/>
  
  <!-- ═══════════ MAIN ISOMETRIC QUANTUM CUBE ═══════════ -->
  <g filter="url(#softShadow)">
    <!-- Top Face -->
    <polygon 
      points="200,80 300,140 200,200 100,140" 
      fill="url(#cubeTopFace)"
    />
    <!-- Left Face -->
    <polygon 
      points="100,140 200,200 200,300 100,240" 
      fill="url(#cubeLeftFace)"
    />
    <!-- Right Face -->
    <polygon 
      points="300,140 200,200 200,300 300,240" 
      fill="url(#cubeRightFace)"
    />
  </g>
  
  <!-- ═══════════ CUBE INTERNAL CIRCUITRY ═══════════ -->
  <!-- Top Face Circuit Grid -->
  <g opacity="0.6">
    <line x1="150" y1="120" x2="200" y2="150" stroke="url(#cyberNeon)" stroke-width="1.5"/>
    <line x1="200" y1="110" x2="200" y2="150" stroke="url(#cyberNeon)" stroke-width="1.5"/>
    <line x1="250" y1="120" x2="200" y2="150" stroke="url(#cyberNeon)" stroke-width="1.5"/>
    <circle cx="200" cy="150" r="6" fill="url(#cyberNeon)" filter="url(#megaGlow)"/>
    <circle cx="150" cy="120" r="3" fill="url(#cyberNeon)"/>
    <circle cx="200" cy="110" r="3" fill="url(#cyberNeon)"/>
    <circle cx="250" cy="120" r="3" fill="url(#cyberNeon)"/>
  </g>
  
  <!-- Left Face Code Lines -->
  <g opacity="0.8">
    <line x1="115" y1="165" x2="165" y2="195" stroke="url(#holoShift)" stroke-width="2" stroke-linecap="round"/>
    <line x1="115" y1="180" x2="145" y2="198" stroke="url(#holoShift)" stroke-width="2" stroke-linecap="round" opacity="0.6"/>
    <line x1="115" y1="195" x2="175" y2="230" stroke="url(#holoShift)" stroke-width="2" stroke-linecap="round"/>
    <line x1="115" y1="210" x2="135" y2="222" stroke="url(#holoShift)" stroke-width="2" stroke-linecap="round" opacity="0.5"/>
    <line x1="115" y1="225" x2="160" y2="252" stroke="url(#holoShift)" stroke-width="2" stroke-linecap="round" opacity="0.7"/>
  </g>
  
  <!-- Right Face Code Lines -->
  <g opacity="0.8">
    <line x1="285" y1="165" x2="235" y2="195" stroke="url(#plasmaEnergy)" stroke-width="2" stroke-linecap="round"/>
    <line x1="285" y1="180" x2="255" y2="198" stroke="url(#plasmaEnergy)" stroke-width="2" stroke-linecap="round" opacity="0.6"/>
    <line x1="285" y1="195" x2="225" y2="230" stroke="url(#plasmaEnergy)" stroke-width="2" stroke-linecap="round"/>
    <line x1="285" y1="210" x2="265" y2="222" stroke="url(#plasmaEnergy)" stroke-width="2" stroke-linecap="round" opacity="0.5"/>
    <line x1="285" y1="225" x2="240" y2="252" stroke="url(#plasmaEnergy)" stroke-width="2" stroke-linecap="round" opacity="0.7"/>
  </g>
  
  <!-- ═══════════ QUANTUM CORE ═══════════ -->
  <!-- Central Processing Unit -->
  <g filter="url(#megaGlow)">
    <polygon 
      points="200,160 230,180 200,200 170,180" 
      fill="url(#cyberNeon)"
      opacity="0.9"
    />
    <circle cx="200" cy="180" r="8" fill="#fff" opacity="0.9"/>
    <circle cx="200" cy="180" r="4" fill="url(#cyberNeon)"/>
  </g>
  
  <!-- ═══════════ FLOATING NEURAL NODES ═══════════ -->
  <!-- Top Nodes -->
  <g filter="url(#megaGlow)">
    <circle cx="200" cy="45" r="8" fill="url(#cyberNeon)"/>
    <line x1="200" y1="53" x2="200" y2="80" stroke="url(#cyberNeon)" stroke-width="2"/>
  </g>
  
  <!-- Left Nodes -->
  <g filter="url(#megaGlow)">
    <circle cx="55" cy="170" r="7" fill="url(#holoShift)"/>
    <line x1="62" y1="170" x2="100" y2="155" stroke="url(#holoShift)" stroke-width="1.5" opacity="0.7"/>
  </g>
  <g>
    <circle cx="45" cy="220" r="5" fill="url(#holoShift)" opacity="0.7"/>
    <line x1="50" y1="218" x2="100" y2="195" stroke="url(#holoShift)" stroke-width="1" opacity="0.4"/>
  </g>
  
  <!-- Right Nodes -->
  <g filter="url(#megaGlow)">
    <circle cx="345" cy="170" r="7" fill="url(#plasmaEnergy)"/>
    <line x1="338" y1="170" x2="300" y2="155" stroke="url(#plasmaEnergy)" stroke-width="1.5" opacity="0.7"/>
  </g>
  <g>
    <circle cx="355" cy="220" r="5" fill="url(#plasmaEnergy)" opacity="0.7"/>
    <line x1="350" y1="218" x2="300" y2="195" stroke="url(#plasmaEnergy)" stroke-width="1" opacity="0.4"/>
  </g>
  
  <!-- Bottom Node -->
  <g filter="url(#megaGlow)">
    <circle cx="200" cy="340" r="8" fill="url(#cosmicPrimary)"/>
    <line x1="200" y1="332" x2="200" y2="300" stroke="url(#cosmicPrimary)" stroke-width="2"/>
  </g>
  
  <!-- ═══════════ DATA FLOW PARTICLES ═══════════ -->
  <g opacity="0.6">
    <circle cx="130" cy="100" r="3" fill="url(#cyberNeon)"/>
    <circle cx="270" cy="100" r="3" fill="url(#plasmaEnergy)"/>
    <circle cx="85" cy="260" r="2" fill="url(#holoShift)"/>
    <circle cx="315" cy="260" r="2" fill="url(#holoShift)"/>
    <circle cx="160" cy="320" r="2.5" fill="url(#cosmicPrimary)"/>
    <circle cx="240" cy="320" r="2.5" fill="url(#cosmicPrimary)"/>
  </g>
  
  <!-- ═══════════ HEXAGONAL FRAME ═══════════ -->
  <polygon 
    points="200,50 330,115 330,285 200,350 70,285 70,115" 
    stroke="url(#cosmicPrimary)" 
    stroke-width="2" 
    fill="none"
    opacity="0.4"
  />
  
  <!-- Corner Accents -->
  <g fill="url(#cosmicPrimary)" opacity="0.8">
    <circle cx="200" cy="50" r="4"/>
    <circle cx="330" cy="115" r="4"/>
    <circle cx="330" cy="285" r="4"/>
    <circle cx="200" cy="350" r="4"/>
    <circle cx="70" cy="285" r="4"/>
    <circle cx="70" cy="115" r="4"/>
  </g>
  
  <!-- ═══════════ OUTER CIRCUIT TRACES ═══════════ -->
  <!-- Top traces -->
  <path d="M200 50 L200 30 L180 30 M200 30 L220 30" stroke="url(#cyberNeon)" stroke-width="1.5" fill="none" opacity="0.5"/>
  
  <!-- Bottom traces -->
  <path d="M200 350 L200 370 L180 370 M200 370 L220 370" stroke="url(#cosmicPrimary)" stroke-width="1.5" fill="none" opacity="0.5"/>
  
  <!-- Left traces -->
  <path d="M70 115 L50 115 L50 130 M50 115 L50 100" stroke="url(#holoShift)" stroke-width="1.5" fill="none" opacity="0.5"/>
  <path d="M70 285 L50 285 L50 270 M50 285 L50 300" stroke="url(#holoShift)" stroke-width="1.5" fill="none" opacity="0.5"/>
  
  <!-- Right traces -->
  <path d="M330 115 L350 115 L350 130 M350 115 L350 100" stroke="url(#plasmaEnergy)" stroke-width="1.5" fill="none" opacity="0.5"/>
  <path d="M330 285 L350 285 L350 270 M350 285 L350 300" stroke="url(#plasmaEnergy)" stroke-width="1.5" fill="none" opacity="0.5"/>
  
  <!-- Terminal nodes -->
  <g fill="url(#cyberNeon)" opacity="0.7">
    <rect x="175" y="25" width="10" height="10" rx="2"/>
    <rect x="215" y="25" width="10" height="10" rx="2"/>
  </g>
</svg>
