<svg xmlns="http://www.w3.org/2000/svg" viewBox="0 0 400 400" fill="none">
  <style>
    /* CSS Animations for better browser support */
    @keyframes rotate1 { from { transform: rotate(0deg); } to { transform: rotate(360deg); } }
    @keyframes rotate2 { from { transform: rotate(60deg); } to { transform: rotate(420deg); } }
    @keyframes rotate3 { from { transform: rotate(120deg); } to { transform: rotate(480deg); } }
    @keyframes pulse { 0%, 100% { r: 20; opacity: 0.8; } 50% { r: 28; opacity: 1; } }
    @keyframes pulseRing { 0%, 100% { r: 32; } 50% { r: 38; } }
    @keyframes blink { 0%, 100% { opacity: 0.3; } 50% { opacity: 1; } }
    @keyframes colorShift { 0%, 100% { stop-color: #00D9FF; } 50% { stop-color: #00FF87; } }
    
    .orbit1 { animation: rotate1 20s linear infinite; transform-origin: 200px 200px; }
    .orbit2 { animation: rotate2 25s linear infinite; transform-origin: 200px 200px; }
    .orbit3 { animation: rotate3 30s linear infinite; transform-origin: 200px 200px; }
    .pulseCore { animation: pulse 2s ease-in-out infinite; }
    .pulseRing { animation: pulseRing 2s ease-in-out infinite; }
    .blink1 { animation: blink 2s ease-in-out infinite; }
    .blink2 { animation: blink 2s ease-in-out infinite 0.5s; }
  </style>
  
  <defs>
    <linearGradient id="supreme1" x1="0%" y1="0%" x2="100%" y2="100%">
      <stop offset="0%" stop-color="#00D9FF"/>
      <stop offset="100%" stop-color="#00FF87"/>
    </linearGradient>
    
    <linearGradient id="supreme2" x1="0%" y1="0%" x2="100%" y2="100%">
      <stop offset="0%" stop-color="#FF00E5"/>
      <stop offset="100%" stop-color="#FF6B00"/>
    </linearGradient>
    
    <linearGradient id="supreme3" x1="0%" y1="0%" x2="100%" y2="100%">
      <stop offset="0%" stop-color="#7B2FFF"/>
      <stop offset="50%" stop-color="#5F72FF"/>
      <stop offset="100%" stop-color="#00C6FF"/>
    </linearGradient>
    
    <radialGradient id="coreGlow" cx="50%" cy="50%" r="50%">
      <stop offset="0%" stop-color="#FFFFFF"/>
      <stop offset="30%" stop-color="#00D9FF"/>
      <stop offset="100%" stop-color="#00D9FF" stop-opacity="0"/>
    </radialGradient>
    
    <filter id="glow" x="-50%" y="-50%" width="200%" height="200%">
      <feGaussianBlur stdDeviation="8" result="blur"/>
      <feMerge>
        <feMergeNode in="blur"/>
        <feMergeNode in="SourceGraphic"/>
      </feMerge>
    </filter>
    
    <filter id="shadow">
      <feDropShadow dx="0" dy="15" stdDeviation="20" flood-color="#7B2FFF" flood-opacity="0.4"/>
    </filter>
  </defs>
  
  <!-- ROTATING ORBITS with CSS -->
  <g opacity="0.4">
    <ellipse class="orbit1" cx="200" cy="200" rx="180" ry="70" stroke="url(#supreme1)" stroke-width="1.5" fill="none"/>
    <ellipse class="orbit2" cx="200" cy="200" rx="180" ry="70" stroke="url(#supreme2)" stroke-width="1.5" fill="none"/>
    <ellipse class="orbit3" cx="200" cy="200" rx="180" ry="70" stroke="url(#supreme3)" stroke-width="1.5" fill="none"/>
  </g>
  
  <!-- MAIN STRUCTURE -->
  <g filter="url(#shadow)">
    <!-- Hexagon -->
    <polygon points="200,60 310,125 310,275 200,340 90,275 90,125" stroke="url(#supreme3)" stroke-width="3" fill="none"/>
    
    <!-- Cube Top -->
    <polygon points="200,100 270,140 200,180 130,140" fill="url(#supreme3)" opacity="0.9"/>
    <!-- Cube Left -->
    <polygon points="130,140 200,180 200,260 130,220" fill="#5F72FF" opacity="0.85"/>
    <!-- Cube Right -->
    <polygon points="270,140 200,180 200,260 270,220" fill="#7B2FFF" opacity="0.85"/>
  </g>
  
  <!-- QUANTUM CORE -->
  <g filter="url(#glow)">
    <circle class="pulseCore" cx="200" cy="180" r="24" fill="url(#coreGlow)"/>
    <polygon points="200,160 215,180 200,200 185,180" fill="#FFFFFF" opacity="0.95"/>
    <circle class="pulseRing" cx="200" cy="180" r="35" stroke="url(#supreme1)" stroke-width="2" fill="none"/>
  </g>
  
  <!-- CIRCUIT LINES LEFT -->
  <g stroke="url(#supreme1)" stroke-width="2" stroke-linecap="round" opacity="0.8">
    <path d="M105 145 L140 165" fill="none"/>
    <path d="M100 170 L145 195" fill="none"/>
    <path d="M105 195 L140 215" fill="none"/>
    <path d="M100 220 L130 238" fill="none"/>
    <circle cx="105" cy="145" r="4" fill="url(#supreme1)"/>
    <circle cx="100" cy="170" r="3" fill="url(#supreme1)"/>
    <circle cx="105" cy="195" r="4" fill="url(#supreme1)"/>
    <circle cx="100" cy="220" r="3" fill="url(#supreme1)"/>
  </g>
  
  <!-- CIRCUIT LINES RIGHT -->
  <g stroke="url(#supreme2)" stroke-width="2" stroke-linecap="round" opacity="0.8">
    <path d="M295 145 L260 165" fill="none"/>
    <path d="M300 170 L255 195" fill="none"/>
    <path d="M295 195 L260 215" fill="none"/>
    <path d="M300 220 L270 238" fill="none"/>
    <circle cx="295" cy="145" r="4" fill="url(#supreme2)"/>
    <circle cx="300" cy="170" r="3" fill="url(#supreme2)"/>
    <circle cx="295" cy="195" r="4" fill="url(#supreme2)"/>
    <circle cx="300" cy="220" r="3" fill="url(#supreme2)"/>
  </g>
  
  <!-- FLOATING NODES -->
  <g filter="url(#glow)">
    <circle cx="200" cy="35" r="10" fill="url(#supreme1)"/>
    <line x1="200" y1="45" x2="200" y2="60" stroke="url(#supreme1)" stroke-width="2"/>
    <circle cx="200" cy="365" r="10" fill="url(#supreme3)"/>
    <line x1="200" y1="355" x2="200" y2="340" stroke="url(#supreme3)" stroke-width="2"/>
    <circle cx="50" cy="200" r="8" fill="url(#supreme1)"/>
    <circle cx="350" cy="200" r="8" fill="url(#supreme2)"/>
  </g>
  
  <!-- CORNER NODES -->
  <g fill="url(#supreme3)">
    <circle cx="200" cy="60" r="5"/>
    <circle cx="310" cy="125" r="5"/>
    <circle cx="310" cy="275" r="5"/>
    <circle cx="200" cy="340" r="5"/>
    <circle cx="90" cy="275" r="5"/>
    <circle cx="90" cy="125" r="5"/>
  </g>
  
  <!-- BLINKING PARTICLES -->
  <circle class="blink1" cx="150" cy="90" r="3" fill="url(#supreme1)"/>
  <circle class="blink2" cx="250" cy="90" r="3" fill="url(#supreme2)"/>
</svg>
